<svg width="532" height="532" viewBox="0 0 532 532" fill="none" xmlns="http://www.w3.org/2000/svg">
<path d="M27.8861 197.292C25.3111 195.756 20.1611 185.472 17.0354 173.031C14.4857 162.883 14.9645 153.873 14.1889 132.606C13.4697 112.886 13.9252 74.9943 14.4371 54.7122C14.989 32.8474 17.0276 27.7288 18.0514 22.2996C19.4049 15.122 33.0051 16.3274 50.5183 14.5125C61.245 13.4009 80.7515 14.2488 91.5402 14.5047C102.329 14.7607 103.865 15.2726 155.846 15.5363C207.827 15.8 310.207 15.8 363.972 15.5441C417.737 15.2881 419.785 14.7762 428.262 14.5125C469.426 13.232 482.314 12.6976 494.204 13.7214C503.415 14.5145 503.054 29.2025 505.908 40.5729C508.958 52.7245 511.865 61.778 514.44 74.6918C517.291 88.9892 518.07 118.987 519.357 136.244C520.359 149.67 521.172 174.365 519.884 189.753C519.178 198.197 518.597 205.033 516.022 207.615C514.701 208.941 512.423 209.174 475.023 209.438C437.624 209.702 364.934 209.702 325.952 209.446C286.97 209.19 283.898 208.678 241.364 208.414C198.83 208.15 116.926 208.15 32.5398 208.15" stroke="black" stroke-width="20" stroke-linecap="round"/>
<rect x="23.1992" y="20.1836" width="489" height="180" fill="black"/>
<path d="M126.214 80.4557C127.174 79.8157 129.454 79.4157 133.054 79.2557C136.654 79.0957 140.414 79.2557 144.334 79.7357C148.334 80.1357 151.894 81.0557 155.014 82.4957C158.214 83.8557 159.814 85.5757 159.814 87.6557C159.814 89.7357 158.854 90.8557 156.934 91.0157C155.014 91.0957 153.014 90.1757 150.934 88.2557C150.054 87.4557 148.494 86.7357 146.254 86.0957C144.094 85.3757 141.894 84.8957 139.654 84.6557C136.134 84.3357 133.614 84.4157 132.094 84.8957C130.574 85.2957 128.774 86.4557 126.694 88.3757C123.974 90.9357 122.494 93.3357 122.254 95.5757C122.094 97.7357 123.134 100.656 125.374 104.336C126.654 106.416 128.214 108.056 130.054 109.256C131.894 110.456 134.614 111.576 138.214 112.616C143.334 114.056 147.934 116.536 152.014 120.056C156.094 123.496 158.134 126.656 158.134 129.536C158.134 130.496 157.774 131.896 157.054 133.736C156.414 135.496 155.654 137.096 154.774 138.536C153.414 140.776 151.894 142.376 150.214 143.336C148.614 144.296 145.934 145.216 142.174 146.096C138.094 147.056 135.054 147.496 133.054 147.416C131.054 147.256 128.294 146.496 124.774 145.136C120.294 143.376 117.454 141.656 116.254 139.976C115.054 138.296 115.414 136.456 117.334 134.456C118.454 133.336 119.414 132.896 120.214 133.136C121.014 133.296 122.494 134.376 124.654 136.376C127.294 138.856 130.734 140.296 134.974 140.696C139.294 141.016 143.054 140.296 146.254 138.536C149.534 136.776 151.174 134.416 151.174 131.456C151.174 125.856 145.814 121.336 135.094 117.896C131.254 116.696 127.934 114.936 125.134 112.616C122.334 110.296 120.254 107.776 118.894 105.056C117.614 102.256 117.054 99.2957 117.214 96.1757C117.454 93.0557 118.574 90.1357 120.574 87.4157C123.214 83.5757 125.094 81.2557 126.214 80.4557ZM162.414 94.0157C163.054 92.9757 164.174 92.6157 165.774 92.9357C167.374 93.1757 168.174 93.8957 168.174 95.0957C168.334 101.176 168.774 108.336 169.494 116.576C170.214 124.816 170.894 130.296 171.534 133.016C173.214 140.536 172.334 144.296 168.894 144.296C168.094 144.296 167.454 144.096 166.974 143.696C166.574 143.296 166.214 142.376 165.894 140.936C165.574 139.496 165.334 137.656 165.174 135.416C165.014 133.096 164.894 129.776 164.814 125.456C164.654 121.616 164.414 117.896 164.094 114.296C163.854 110.616 163.574 107.776 163.254 105.776C163.014 103.776 162.774 101.816 162.534 99.8957C162.294 97.8957 162.134 96.6157 162.054 96.0557C162.054 95.4957 162.174 94.8157 162.414 94.0157ZM164.814 77.2157C165.774 75.4557 166.494 74.4957 166.974 74.3357C167.454 74.0957 168.614 74.3357 170.454 75.0557C172.214 75.6957 173.054 76.8157 172.974 78.4157C172.974 79.9357 172.094 81.6157 170.334 83.4557C168.974 84.7357 168.014 85.3757 167.454 85.3757C166.974 85.3757 166.254 84.6957 165.294 83.3357C163.854 81.3357 163.694 79.2957 164.814 77.2157ZM188.854 74.4557C191.254 73.2557 194.094 72.6157 197.374 72.5357C200.654 72.3757 205.214 72.7357 211.054 73.6157L218.734 74.8157L219.214 103.136C219.614 122.016 219.494 132.776 218.854 135.416C218.214 138.056 215.814 140.256 211.654 142.016C207.494 143.696 203.454 144.136 199.534 143.336C196.414 142.776 192.814 141.296 188.734 138.896C184.734 136.416 181.414 133.816 178.774 131.096C176.134 128.296 175.094 126.176 175.654 124.736C176.054 123.616 176.934 122.856 178.294 122.456C179.654 121.976 180.894 121.936 182.014 122.336C183.214 122.736 183.814 123.496 183.814 124.616C183.814 126.296 186.134 128.816 190.774 132.176C195.414 135.456 198.694 136.936 200.614 136.616C201.494 136.456 202.614 136.336 203.974 136.256C205.414 136.096 206.494 135.976 207.214 135.896C207.934 135.736 208.774 135.496 209.734 135.176C210.694 134.776 211.374 134.176 211.774 133.376C212.254 132.576 212.734 131.536 213.214 130.256C213.694 128.896 214.014 127.136 214.174 124.976C214.334 122.816 214.414 120.216 214.414 117.176C214.334 108.376 213.894 102.256 213.094 98.8157L211.894 93.6557L209.494 97.9757C207.654 101.416 205.134 104.296 201.934 106.616C198.814 108.856 195.854 109.976 193.054 109.976C189.694 109.976 186.414 108.416 183.214 105.296C180.094 102.096 178.214 98.4557 177.574 94.3757C177.014 91.0157 177.894 87.2957 180.214 83.2157C182.614 79.1357 185.494 76.2157 188.854 74.4557ZM207.334 81.8957C206.054 80.1357 204.374 78.9757 202.294 78.4157C200.294 77.7757 198.254 77.7357 196.174 78.2957C194.174 78.8557 192.174 79.7757 190.174 81.0557C188.174 82.2557 186.534 83.7757 185.254 85.6157C184.054 87.3757 183.214 89.2557 182.734 91.2557C182.334 93.1757 182.694 95.1757 183.814 97.2557C186.454 102.216 189.974 104.496 194.374 104.096C198.774 103.696 202.694 100.736 206.134 95.2157C208.134 92.0957 209.214 89.6157 209.374 87.7757C209.534 85.9357 208.854 83.9757 207.334 81.8957ZM223.265 75.5357C225.585 74.0957 227.185 75.1757 228.065 78.7757C228.145 79.2557 228.705 83.6957 229.745 92.0957C230.225 95.6957 230.745 98.8157 231.305 101.456C232.025 104.416 232.505 105.936 232.745 106.016C232.985 106.096 233.265 105.616 233.585 104.576C233.745 104.256 233.945 103.776 234.185 103.136C235.865 97.8557 239.225 92.9757 244.265 88.4957C249.385 83.9357 255.025 80.7757 261.185 79.0157C263.105 78.4557 264.545 78.3357 265.505 78.6557C266.465 78.8957 267.425 79.8157 268.385 81.4157C270.465 84.4557 272.025 89.1757 273.065 95.5757C274.105 101.976 274.985 109.136 275.705 117.056C276.505 124.896 277.305 130.696 278.105 134.456C280.185 143.256 279.345 147.656 275.585 147.656C274.465 147.656 273.585 147.416 272.945 146.936C272.385 146.376 271.865 145.176 271.385 143.336C270.985 141.496 270.705 139.096 270.545 136.136C270.385 133.176 270.265 128.976 270.185 123.536C270.025 113.616 269.345 104.936 268.145 97.4957C266.945 90.0557 265.545 85.8557 263.945 84.8957C263.465 84.6557 262.305 84.8557 260.465 85.4957C258.625 86.0557 256.585 86.8957 254.345 88.0157C250.905 89.6957 248.345 91.4557 246.665 93.2957C244.985 95.1357 242.945 98.4157 240.545 103.136C237.905 108.176 236.345 111.856 235.865 114.176C235.385 116.416 235.385 119.896 235.865 124.616C236.985 135.736 236.985 141.696 235.865 142.496C235.305 142.896 234.145 142.216 232.385 140.456C231.265 139.336 230.425 137.216 229.865 134.096C229.385 130.896 229.065 127.296 228.905 123.296C228.745 119.216 228.145 113.576 227.105 106.376C226.065 99.0957 224.625 91.7757 222.785 84.4157C221.985 81.4557 221.625 79.4157 221.705 78.2957C221.785 77.0957 222.305 76.1757 223.265 75.5357ZM332.216 85.2557C331.976 83.8157 331.976 82.8557 332.216 82.3757C332.536 81.8957 333.056 81.5357 333.776 81.2957C334.576 81.0557 335.376 81.0157 336.176 81.1757C338.016 81.4957 339.336 84.5357 340.136 90.2957C341.016 96.3757 342.656 103.336 345.056 111.176C347.456 118.936 349.736 124.536 351.896 127.976C353.816 131.176 356.256 133.416 359.216 134.696C362.176 135.976 364.816 135.896 367.136 134.456C369.936 132.776 372.216 129.256 373.976 123.896C375.736 118.456 376.896 111.536 377.456 103.136C377.856 96.7357 378.296 92.4157 378.776 90.1757C379.256 87.9357 379.976 86.8157 380.936 86.8157C382.056 86.8157 382.736 87.6157 382.976 89.2157C383.216 90.7357 383.256 93.9357 383.096 98.8157C382.856 106.176 381.736 113.256 379.736 120.056C377.816 126.776 375.416 132.216 372.536 136.376C369.656 140.536 366.696 142.616 363.656 142.616C360.536 142.616 357.696 141.736 355.136 139.976C352.576 138.136 350.456 135.856 348.776 133.136C347.176 130.336 345.616 126.976 344.096 123.056C342.656 119.136 341.456 115.376 340.496 111.776C339.616 108.176 338.536 104.256 337.256 100.016C335.976 95.7757 334.776 92.3757 333.656 89.8157C333.016 88.2157 332.536 86.6957 332.216 85.2557ZM391.171 78.6557C393.491 78.0957 397.451 78.0557 403.051 78.5357C409.851 79.1757 414.891 80.8157 418.171 83.4557C421.451 86.0957 422.691 89.4957 421.891 93.6557C420.851 99.0157 418.131 103.656 413.731 107.576C409.411 111.496 404.811 113.456 399.931 113.456C397.611 113.456 396.251 113.816 395.851 114.536C395.451 115.176 395.371 117.216 395.611 120.656C395.851 123.376 396.211 125.856 396.691 128.096C397.251 130.256 397.691 131.816 398.011 132.776C398.411 133.656 398.571 134.736 398.491 136.016C398.491 137.216 398.131 138.616 397.411 140.216C395.731 143.816 394.251 144.456 392.971 142.136C391.771 140.056 391.131 136.296 391.051 130.856C390.811 122.856 390.251 114.496 389.371 105.776C388.491 96.9757 387.571 91.0557 386.611 88.0157C385.651 84.9757 385.451 82.8157 386.011 81.5357C386.651 80.2557 388.371 79.2957 391.171 78.6557ZM412.891 86.9357C411.371 86.2157 409.331 85.6157 406.771 85.1357C404.291 84.5757 401.931 84.2957 399.691 84.2957H391.651L392.731 89.5757C393.371 93.0957 393.691 96.7757 393.691 100.616C393.691 107.656 397.811 109.456 406.051 106.016C409.411 104.576 411.851 103.016 413.371 101.336C414.891 99.6557 416.051 97.2957 416.851 94.2557C417.411 92.2557 417.451 90.8157 416.971 89.9357C416.491 89.0557 415.131 88.0557 412.891 86.9357Z" fill="white"/>
<path d="M516.732 202.996C516.732 207.295 515.985 216.368 514.288 219.575C512.181 223.557 510.702 225.61 509.291 227.875C507.699 230.43 505.804 232.397 504.201 234.569C502.456 236.932 500.148 239.558 497.229 243.141C494.694 246.254 493.926 250.113 493.355 254.544C492.629 260.174 491.098 266.504 490.151 271.982C489.366 276.517 488.643 280.645 487.888 284.715C486.869 290.207 486.946 295.181 486.661 299.325C486.448 302.412 485.623 306.296 485.623 307.82C485.623 315.354 485.057 297.286 484.588 292.393C483.505 281.109 485.43 278.054 486.748 273.247C487.926 268.95 489.197 265.984 490.145 263.433C491.153 260.719 492.591 258.065 493.632 254.575C494.926 250.235 497.49 245.056 498.629 242.598C499.734 240.216 501.076 237.137 503.055 234.117C504.841 231.393 505.793 229.026 506.548 226.761C507.344 224.373 507.863 220.927 508.248 208.132C508.312 206.006 508.248 206.752 508.154 207.51C507.777 210.578 506.37 213.54 505.329 217.123C504.172 221.106 503.349 224.479 501.655 229.185C500.5 232.395 499.39 235.033 498.072 237.96C496.172 242.181 493.926 248.981 491.384 253.6C488.582 258.689 487.331 263.857 485.722 268.125C484.467 271.452 484.684 275 483.929 279.058C483.343 282.208 482.795 289.299 482.325 296.01C481.422 308.917 482.795 313.078 483.734 318.352C486.183 332.11 482.24 336.461 480.914 339.209C479.78 341.559 478.089 343.825 475.733 346.56C473.935 348.646 470.193 353.045 466.499 357.208C462.111 362.153 460.549 363.627 460.359 364.196C459.668 366.269 463.745 359.312 465.631 356.385C467.186 353.972 469.582 350.454 471.946 347.804C473.968 345.537 475.996 341.97 479.107 337.255C481.413 333.76 482.41 330.465 483.827 327.538C484.951 325.216 485.623 322.173 486.186 318.96C486.453 317.433 486.754 314.073 486.847 309.834C487.052 300.528 486.946 285.781 486.567 282.384C485.955 276.893 485.249 268.247 484.588 263.92C483.131 254.394 483.553 250.905 482.704 247.412C481.617 242.938 479.978 240.712 478.651 237.42C476.942 233.176 476.2 229.784 474.788 226.294C473.5 223.108 472.24 220.734 471.485 217.714C470.774 214.869 469.978 212.623 469.316 209.232C469.133 208.298 469.22 207.352 469.22 207.244C469.22 205.241 471.098 211.469 472.138 213.828C473.522 216.964 476.188 219.388 477.416 221.747C479.287 225.343 481.279 228.811 483.165 231.832C484.821 234.484 487.489 239.909 489.014 244.182C489.926 246.741 491.087 250.113 491.748 253.603C492.011 254.99 491.845 257.251 491.845 253.925C491.845 241.64 491.471 231.289 490.812 229.125C489.644 225.291 488.27 221.119 486.76 217.714C486.078 216.176 485.249 214.88 484.591 214.312C484.374 214.125 484.118 214.863 484.209 215.432C484.705 218.549 487.127 222.024 488.821 227.109C490.344 231.679 490.521 235.599 490.9 240.127C491.144 243.046 492.976 233.744 494.101 231.006C495.615 227.325 496.37 224.694 497.871 222.143C499.431 219.494 499.571 217.143 499.95 216.574C501.219 214.67 496.381 221.085 494.865 223.537C494.455 224.2 494.673 225.225 494.579 225.426C493.669 227.384 493.541 218.11 493.541 214.051C493.541 213.913 492.608 218.981 491.194 226.696C490.002 233.2 490.527 237.488 490.244 246.371C489.997 254.131 490.148 268.507 490.054 276.471C489.926 287.464 489.209 290.837 488.36 295.269C487.468 299.93 486.946 302.535 486.661 306.771C486.223 313.255 486.562 322.331 486.847 325.536C487.122 328.612 487.885 333.44 488.824 337.976C490.331 345.258 492.41 356.642 493.066 360.225C493.804 364.255 494.854 367.954 496.457 372.38C498.533 378.108 499.944 381.903 500.892 385.585C501.703 388.738 502.591 392.084 503.53 393.894C504.96 396.65 502.41 387.038 501.652 382.974C500.595 377.304 498.451 374.583 496.941 370.248C495.774 366.898 493.926 362.524 492.979 358.65C492.174 355.358 491.471 352.332 491.186 349.128C490.568 342.202 491.087 330.465 491.748 325.103C492.779 316.756 492.784 312.184 493.539 307.184C494.271 302.334 495.238 296.358 495.801 292.189C496.411 287.67 497.116 282.772 497.594 278.804C498.494 271.334 498.813 259.208 499.291 254.765C499.592 251.963 501.076 248.642 502.492 245.429C503.878 242.288 505.601 239.207 507.58 236.379C510.396 232.356 514.65 227.522 516.63 225.44C518.761 223.2 519.741 220.542 521.345 217.807C522.921 215.118 524.266 212.25 525.213 209.792C525.969 207.34 526.348 203.585 526.817 198.969C526.913 196.627 526.913 192.521 526.348 187.725" stroke="black" stroke-width="10" stroke-linecap="round"/>
<path d="M462.291 361.111C462.048 361.842 461.313 363.308 460.762 364.78C460.154 366.405 459.108 367.961 458.252 369.557C457.397 371.153 456.904 373.105 456.169 374.884C455.204 377.218 455.434 379.11 455.248 382.107C455.127 384.056 454.574 386.452 454.269 388.359C453.967 390.244 453.839 392.214 453.473 394.176C453.103 396.165 452.494 398.094 451.943 400.543C451.279 403.491 451.024 405.201 450.289 407.038C449.459 409.113 449.429 411.69 449.064 413.347C448.666 415.149 448.084 416.835 447.594 418.858C447.052 421.092 446.497 423.809 445.635 426.389C444.566 429.591 443.314 432.504 442.083 434.905C441.281 436.47 440.492 437.906 439.39 439.683C438.178 441.636 436.817 443.05 435.105 445.498C433.207 448.21 430.578 451.252 429.222 452.974C427.979 454.552 426.286 456.037 424.814 457.079C424.422 457.356 424.081 457.749 424.075 457.755C422.978 458.852 426.153 455.192 427.07 453.659C428.198 451.775 429.336 450.415 430.622 448.943C431.809 447.584 432.885 445.762 434.602 444.105C436.183 442.578 436.685 440.493 437.971 438.716C439.083 437.181 439.867 435.106 440.913 433.204C441.774 431.638 442.565 429.594 443.302 427.815C444.414 425.13 445.262 422.979 446.058 421.017C446.78 419.235 447.099 417.709 447.59 415.933C448.019 414.38 448.812 412.69 449.122 410.788C449.403 409.067 450.407 407.42 450.837 405.401C451.413 402.694 451.509 401.173 451.695 398.176C451.808 396.345 452.369 393.713 452.735 391.617C453.097 389.538 453.346 386.842 453.837 385.309C454.463 383.352 454.449 381.329 454.634 379.248C454.821 377.152 455.184 374.715 455.614 373.122C456.159 371.101 456.286 369.57 456.777 368.038C457.339 366.281 457.999 364.793 458.919 363.321C459.753 361.988 460.204 360.383 461.245 358.972C462.225 357.646 462.901 356.341 463.818 354.93C464.764 353.474 466.326 352.541 467.187 351.255C468.179 349.776 470 348.624 471.106 347.152C472.201 345.696 473.8 344.582 475.086 343.11C476.321 341.697 477.717 340.172 478.518 338.701C479.398 337.085 480.415 335.395 481.091 333.863C481.899 332.031 482.987 330.618 483.358 328.781C483.788 326.652 484.457 324.496 484.767 317.348C484.828 315.794 484.949 315.309 485.012 314.513C485.074 313.718 485.074 312.626 485.074 311.502" stroke="black" stroke-width="10" stroke-linecap="round"/>
<path d="M507.836 409.955L508.632 410.353" stroke="black" stroke-width="10" stroke-linecap="round"/>
<path d="M416.27 472.021H417.172" stroke="black" stroke-width="10" stroke-linecap="round"/>
<path d="M481.908 328.714C481.908 324.666 482.26 316.475 482.529 313.016C482.758 310.059 483.325 306.888 483.418 297.152C483.46 292.815 482.441 288.62 481.999 284.964C481.624 281.862 481.024 279.725 480.755 275.294C480.548 271.889 479.959 268.722 479.336 264.65C477.667 253.746 478.712 251.498 478.27 248.659C477.692 244.944 477.115 242.092 476.055 238.451C475.319 235.924 473.93 234.273 473.211 232.321C472.358 230.006 470.553 228.063 469.131 225.488C467.855 223.177 466.292 221.139 464.694 218.918C462.675 216.111 460.082 214.396 457.861 212.437C455.079 209.981 452.626 208.176 450.493 206.754C448.359 205.332 446.762 204.442 446.226 204.439C443.847 204.428 449.59 208.335 451.896 210.469C453.838 212.264 456.151 214.546 458.111 216.948C460.228 219.541 461.659 221.299 462.82 223.781C464.052 226.415 465.035 228.574 465.927 230.707C466.819 232.839 467.879 234.966 468.59 237.099C469.301 239.232 470.361 241.357 470.899 243.932C471.422 246.437 472.492 248.813 473.296 251.652C474.268 255.085 474.271 257.686 474.54 264.863C474.671 268.37 475.336 271.183 475.605 286.577C475.671 290.365 476.049 297.754 475.962 308.403C475.915 314.006 474.984 317.86 474.1 320.805C473.352 323.298 473.386 327.266 472.502 330.392C471.786 332.925 471.256 335.095 470.284 337.228C469.339 339.301 468.423 341.486 467.443 343.619C466.43 345.824 465.227 348.229 463.717 350.807C461.727 354.204 460.434 356.399 459.011 359.062C457.475 361.94 455.289 364.739 453.685 367.141C452.051 369.59 451.198 371.844 450.487 373.977C449.776 376.111 449.068 378.236 448.445 380.72C447.491 384.523 447.47 387.109 447.201 397.38C447.079 402.041 446.405 405.931 446.136 408.594C445.861 411.32 445.159 413.387 444.274 416.05C443.426 418.605 443.209 420.844 442.852 425.187C442.623 427.974 441.43 429.898 440.812 432.561C440.12 435.546 438.235 437.354 437.705 439.488C437.351 440.55 436.818 441.621 436.285 442.683C436.104 443.218 436.104 443.746 435.039 445.354" stroke="black" stroke-width="10" stroke-linecap="round"/>
<path d="M433.442 202.488C434.145 203.197 436.627 204.257 439.642 206.209C443.72 208.849 446.566 209.583 448.968 211.18C451.961 213.172 453.852 215.26 455.716 216.509C457.767 217.884 458.997 220.235 460.512 222.187C461.951 224.04 462.554 226.445 463.353 228.578C464.204 230.85 464.866 232.836 465.838 234.969C466.783 237.043 467.348 239.227 467.705 241.448C468.19 244.471 468.946 247.216 469.569 249.349C470.18 251.44 470.725 256.068 471.609 260.614C472.748 266.472 472.674 269.053 472.943 271.186C473.08 272.272 473.388 274.549 473.563 277.476C473.634 278.656 474.091 279.172 474.272 277.335C475.344 266.457 473.388 263.929 472.858 261.527C472.234 258.702 470.906 256.292 470.107 254.159C469.256 251.887 468.243 249.901 467.002 247.68C465.605 245.18 464.344 242.625 462.299 238.985C460.907 236.508 459.018 234.455 457.415 232.234C455.726 229.895 454.043 228.064 452.621 225.931C451.294 223.94 449.25 222.738 447.298 221.135C445.317 219.508 443.04 218.296 440.907 216.874C438.774 215.452 436.649 214.738 434.074 213.766C431.862 212.931 429.725 212.608 426.977 211.724C421.971 210.113 419.254 210.658 404.474 210.565C399.342 210.533 396.885 211.361 394.483 211.985C391.951 212.641 389.78 213.14 386.32 214.554C383.946 215.525 381.791 216.155 379.658 216.954C377.386 217.805 375.048 219.169 372.734 220.591C370.55 221.934 368.476 223.43 365.9 224.94C363.396 226.409 361.552 228.224 359.419 229.821C356.901 231.707 355.512 233.901 352.764 236.918C350.833 239.038 349.653 241.709 348.231 244.111C346.653 246.778 346.096 249.347 344.594 252.273C342.413 256.522 342.016 260.702 340.863 263.727C339.87 266.33 339.529 267.993 339.174 269.056C337.285 274.725 338.991 246.705 339.348 244.572C339.756 242.132 340.94 239.43 341.832 237.028C342.86 234.261 344.668 231.792 346.532 229.659C348.396 227.526 350.878 225.752 353.541 223.888C356.18 222.041 359.219 220.607 362.063 219.446C363.494 218.862 364.907 218.115 365.709 217.846C367.843 217.13 360.849 221.822 358.353 223.699C356.416 225.157 353.392 226.977 350.455 229.465C348.196 231.378 346.458 234.604 344.86 237.715C342.122 243.044 342.016 246.503 341.393 249.61C340.535 253.887 340.77 257.155 340.328 261.325C339.998 264.435 339.704 266.923 338.82 269.143C337.847 271.589 337.574 274.198 336.778 275.985C336.051 277.615 337.744 271.737 338.194 269.516C339.025 265.416 338.991 260.02 339.26 254.705C339.36 252.73 339.704 244.814 339.529 233.544C339.434 227.461 337.936 225.049 336.16 221.409C335.006 219.044 333.324 216.528 331.191 213.684C330.128 212.267 329.233 211.015 328.964 210.304C328.204 208.294 334.187 213.13 337.827 216.589C340.204 218.848 342.357 220.938 344.402 222.81C346.203 224.458 346.271 226.45 346.713 226.897C348.526 228.732 347.342 221.673 346.631 219.097C345.994 216.79 344.679 215.276 344.146 214.214C343.893 213.708 343.965 213.151 344.317 212.879C346.176 211.443 349.1 211.724 351.414 210.571C351.95 210.303 352.476 210.126 352.748 210.299C353.019 210.472 353.019 210.999 352.58 211.535C349.587 215.18 345.393 218.456 342.82 224.125C341.611 226.79 341.483 229.108 341.214 232.213C341.145 233.019 340.951 233.72 340.86 239.267C340.77 244.814 340.77 255.184 340.857 260.79C340.973 268.181 341.654 271.002 342.011 273.404C342.485 276.599 343.252 280.056 344.317 284.139C345.004 286.774 346.266 289.643 346.804 292.045C347.464 294.993 349.813 297.281 350.886 299.414C351.957 301.543 354.074 304.024 355.765 306.426C357.68 309.146 359.752 312.013 361.269 314.415C363.087 317.291 364.907 319.118 366.417 320.987C366.745 321.392 367.389 321.259 367.836 321.522C370.125 322.871 369.701 327.107 370.238 329.328C370.895 332.038 371.836 333.503 372.103 334.654C372.245 335.267 372.193 335.98 372.193 334.584C372.193 325.523 371.661 322.697 370.689 320.201C369.752 317.797 367.41 314.356 365.631 311.062C363.803 307.675 361.371 306.356 360.391 304.223C359.341 301.938 357.642 299.965 355.515 297.481C352.434 293.883 349.675 287.577 347.875 283.1C346.243 279.043 344.86 276.712 343.526 273.426C342.462 270.804 342.549 268.542 341.925 264.033C340.281 252.138 342.719 249.549 343.518 246.793C344.194 244.459 345.201 241.741 346.711 238.098C348.34 234.167 349.643 232.319 350.175 232.048C352.941 230.637 349.291 237.629 348.761 240.292C348.23 242.962 347.523 245.437 346.985 248.811C345.671 257.055 346.447 269.937 346.716 272.427C347.047 275.495 347.693 278.278 349.55 283.867C350.598 287.024 352.828 291.582 354.436 294.62C355.67 296.951 357.451 300.295 359.049 303.049C361.524 307.315 362.777 309.531 365.171 313.962C366.909 317.18 368.635 319.469 369.882 321.959C371.333 324.858 371.128 327.991 371.57 330.481C371.848 332.048 371.836 333.679 372.103 338.435C372.742 349.852 371.842 358.706 371.221 360.921C370.386 363.905 369.53 365.987 368.204 368.207C366.844 370.484 366.867 372.383 367.043 372.918C367.716 374.969 369.349 368.671 370.148 366.096C371.062 363.148 371.831 358.914 372.105 347.843C372.223 343.081 370.958 340.976 370.507 337.958C370.129 335.42 368.476 331.932 366.872 328.992C365 325.559 364.385 322.516 362.702 320.201C361.164 318.087 359.773 315.592 358.351 313.19C356.806 310.58 354.628 307.432 352.585 304.404C349.522 299.864 347.523 297.483 345.571 295.523C343.065 293.007 341.664 289.494 340.242 287.092C338.784 284.628 337.936 282.038 337.398 279.282C337.222 278.656 336.871 278.128 336.69 274.254C336.509 270.379 336.509 263.173 336.509 255.749" stroke="black" stroke-width="10" stroke-linecap="round"/>
<path d="M159.449 203.926C160.51 203.926 162.643 204.19 164.246 205.056C165.797 205.895 167.445 206.591 169.446 207.656C171.969 208.998 174.113 210.457 175.851 211.592C177.632 212.753 178.387 214.723 179.853 216.06C181.689 217.733 182.389 219.926 183.457 221.861C184.504 223.757 185.99 226.057 186.793 228.262C188.071 231.773 188.528 234.197 188.796 236.334C189.095 238.721 190.129 241.529 190.663 244.336C191.168 246.99 191.197 248.876 191.397 253.507C191.574 257.605 191.465 265.268 191.399 269.412C191.301 275.558 190.801 279.019 190.599 281.821C190.511 283.034 190.133 284.094 189.932 288.922C189.754 293.219 189.864 301.278 189.93 305.759C190.028 312.398 191.329 315.037 191.929 317.372C192.75 320.564 194.523 322.905 195.863 325.777C196.876 327.946 198.925 330.509 199.999 332.45C201.192 334.604 202.927 336.648 204.334 338.785C205.78 340.983 207.465 343.051 208.338 344.79C208.539 345.192 208.802 345.588 208.674 345.528C206.837 344.668 206.809 342.403 204.614 338.343C203.104 335.55 202.543 333.198 201.872 330.865C201.201 328.529 200.67 326.131 199.873 323.93C198.363 319.756 198.405 316.662 198.203 314.455C197.976 311.979 197.604 308.786 197.402 304.66C197.31 302.783 197.068 295.9 197.002 286.497C196.979 283.169 196.804 282.773 196.736 278.541C196.668 274.309 196.668 266.253 196.734 261.773C196.828 255.407 197.468 252.766 197.866 250.689C198.293 248.465 198.669 239.752 198.004 234.681C197.731 232.592 196.54 230.747 195.737 228.746C194.867 226.576 193.474 224.88 192.27 223.141C191.173 221.558 190.137 219.942 188.936 218.339C187.519 216.447 185.87 215.139 184.4 213.869C183.997 213.138 183.465 212.466 182.667 211.934C182.265 211.666 181.868 211.402 180.66 210.329" stroke="black" stroke-width="10" stroke-linecap="round"/>
<path d="M175.417 210.868C175.544 211.633 176.309 213.421 177.399 215.028C178.419 216.532 179.131 218.165 180.027 220.088C180.925 222.015 181.438 223.548 182.27 225.088C183.187 226.783 183.491 229.184 184.129 231.428C184.923 234.218 184.898 236.866 185.092 241.353C185.227 244.454 185.667 246.485 185.861 257.218C185.915 260.201 186.309 261.357 186.501 266.693C186.675 271.519 186.567 280.657 186.503 285.68C186.406 293.393 185.675 297.743 185.287 301.268C184.806 305.629 183.876 309.661 181.642 318.677C180.741 322.315 180.162 325.425 178.628 331.186C177.749 334.485 176.448 338.497 175.358 341.255C173.746 345.334 173.241 347.216 172.026 350.801C171.333 352.847 169.789 355.029 168.501 357.918C167.705 359.704 166.328 361.949 165.296 363.945C164.08 366.296 162.099 368.747 160.811 370.8C159.525 372.849 157.739 374.898 156.838 376.569C155.761 378.563 153.51 379.773 152.29 381.119C150.884 382.668 148.897 384.002 143.783 388.922C141.371 391.242 138.654 393.345 136.209 395.471C134.186 397.23 133.133 398.997 131.976 400.406C130.802 401.836 129.419 403.479 128.131 405.019C127.54 405.726 127.105 406.559 126.784 406.945C125.921 407.984 129.266 403.118 131.261 400.484C132.856 398.38 134.271 397.213 135.748 395.804C137.241 394.378 138.754 392.091 140.233 390.358C141.941 388.354 143.114 387.216 144.971 385.171C148.052 381.777 151.557 378.904 153.945 376.836C156.041 375.019 158.616 372.999 160.481 370.942C161.999 369.267 164.637 367.362 166.505 365.111C167.813 363.536 168.62 361.588 170.092 359.794C172.195 357.233 172.849 355.182 174.258 353.003C175.817 350.59 176.817 347.631 177.786 345.119C178.498 343.271 179.262 341.088 180.283 338.329C180.967 336.481 181.438 334.421 182.526 331.73C183.362 329.663 183.491 327.501 184.129 325.384C184.819 323.098 184.898 320.965 185.412 318.337C185.603 317.359 185.798 311.019 185.734 301.73C185.7 296.729 185.16 294.436 184.71 292.193C184.518 289.177 184.133 287.766 183.941 286.808C183.876 286.232 183.876 285.471 183.876 284.686" stroke="black" stroke-width="10" stroke-linecap="round"/>
<path d="M194.898 206.145C195.579 206.145 196.26 206.145 196.814 206.213C197.369 206.281 197.778 206.417 199.023 206.557" stroke="black" stroke-width="10" stroke-linecap="round"/>
<path d="M196.137 292.77C196.686 291.949 197.235 290.031 198.057 286.603C200.139 277.932 201.219 274.637 201.772 271.881C202.561 267.946 206.285 260.793 209.465 254.769C212.627 248.78 215.648 243.848 217.991 240.463C220.794 236.414 222.529 233.379 223.975 231.59C225.965 229.129 227.891 227.744 230.913 224.65C232.795 222.723 234.904 221.276 237.034 219.97C239.705 218.334 241.636 216.879 244.457 214.884C247.16 212.974 249.201 211.788 251.336 210.687C251.832 210.431 252.229 210.138 251.35 209.998C245.713 209.098 243.995 210.815 233.374 215.614C229.624 217.308 226.547 218.784 223.098 220.577C220.652 221.848 218.701 223.602 216.084 225.731C213.552 227.789 210.855 230.887 209.001 233.428C206.802 236.441 205.493 239.409 204.391 241.406C202.989 243.947 202.465 246.009 201.504 248.416C200.284 251.471 199.578 253.706 199.095 255.707C198.853 256.708 198.753 257.84 198.408 258.46C197.417 260.247 201.219 253.046 203.073 249.815C205.929 244.837 209.189 238.609 210.911 235.926C213.554 231.808 215.929 230.763 217.309 230.206C219.631 229.269 215.261 234.6 213.128 237.277C210.031 241.165 207.836 243.122 205.907 245.393C204.748 246.758 203.566 247.804 202.812 248.218C202.508 248.385 202.193 247.816 202.121 247.197C201.761 244.118 202.869 241.084 203.903 237.167C204.862 233.531 206.714 229.138 208.506 225.817C209.321 224.308 210.022 222.79 210.366 221.963C211.479 219.292 206.046 229.509 204.051 231.986C203.589 232.56 203.158 232.95 202.948 230.778C202.279 223.871 202.873 218.524 202.875 218.45C202.99 214.339 199.578 226.069 198.206 228.62C197.985 229.032 197.383 228.429 197.105 227.946C195.489 225.146 195.176 221.276 195.038 220.247C194.973 219.766 195.172 219.354 196.467 219.143C204.015 217.917 208.224 218.108 213.099 217.081C215.064 216.667 216.618 216.598 218.194 216.186C219.07 215.956 220.178 216.045 218.357 216.386C205.129 218.857 200.411 220.302 199.027 220.995C198.323 221.348 203.525 218.397 213.382 215.381C219.501 213.509 228.139 211.821 232.148 210.772C236.158 209.722 235.341 209.586 234.444 209.516C229.054 209.094 222.554 214.247 220.002 216.792C218.765 218.027 217.727 219.065 217.451 219.686C217.278 220.076 218.816 218.524 222.096 217.361C228.506 215.088 234.755 214.123 238.8 213.711C248.326 212.739 256.065 211.788 259.171 211.372C262.046 210.986 264.744 210.547 264.956 210.341C267.765 207.614 255.298 209.858 251.216 210.268C249.023 210.489 246.066 211.912 240.784 213.698C230.833 217.063 226.967 220.698 224.193 223.12C221.663 225.328 219.518 228.684 218.074 230.545C217.339 231.492 216.902 232.541 216.422 232.888C216.246 233.015 216.077 232.281 216.143 231.729C216.461 229.072 219.641 227.463 222.723 225.475C227.416 222.447 233.378 221.14 236.95 219.972C242.101 218.289 249.605 217.151 253.458 216.734C259.782 216.05 264.464 215.909 270.606 215.703C275.656 215.533 284.643 215.633 289.475 215.701C297.322 215.811 302.826 216.318 305.303 216.868C307.261 217.304 309.97 218.24 318.206 221.67C321.203 222.918 323.179 223.602 324.899 224.429C327.156 225.515 328.813 227.587 330.263 229.239C331.835 231.031 333.631 232.537 334.937 234.668C336.619 237.413 338.169 238.725 339.27 240.377C339.819 241.199 340.235 242.029 340.442 241.899C343.819 239.771 339.414 235.722 338.385 232.626C337.401 229.667 335.43 226.927 333.644 224.372C332.318 222.476 330.62 220.863 328.968 219.42C327.3 217.962 324.985 216.466 321.755 214.472C319.201 212.894 317.416 212.061 317.001 211.716C316.036 210.914 319.738 214.247 321.188 216.382C322.559 218.4 325.505 221.796 328.267 226.001C329.889 228.472 331.701 233.073 333.083 236.726C334.325 240.01 334.596 242.569 335.215 245.39C335.87 248.377 336.519 250.274 337.21 253.09C337.895 255.884 338.309 258.112 338.86 260.791C339.514 263.975 339.819 268.697 340.167 272.269C340.634 277.056 340.648 283.551 340.922 284.31C341.519 285.962 341.064 280.131 340.446 277.176C339.812 274.149 339.002 271.741 338.041 268.926C337.143 266.296 336.114 264.184 334.469 261.499C333.148 259.344 332.814 257.303 331.579 255.173C330.3 252.968 328.838 248.938 327.658 246.096C326.797 244.02 325.258 241.637 324.358 239.222C323.671 237.376 321.817 235.994 320.237 233.381C317.399 228.685 310.828 224.576 307.66 222.79C305.455 221.546 303.808 220.723 301.745 219.83C299.489 218.853 297.208 217.976 294.46 216.874C291.474 215.677 287.588 214.676 285.245 213.917C284.106 213.548 283.179 213.022 283.104 212.884C282.428 211.624 286.602 213.43 291.041 215C294.547 216.24 300.516 218.611 305.099 220.62C316.684 225.698 319.186 227.859 322.349 229.445C325.544 231.047 326.751 233.362 329.296 236.452C331.167 238.723 332.526 240.919 333.84 243.194C334.906 245.041 335.694 247.387 336.11 249.586C336.678 252.579 338.169 255.488 338.585 258.112C338.947 260.391 339.819 262.781 340.852 267.931C341.449 270.908 341.749 273.094 341.545 275.02C341.482 275.618 340.932 275.313 340.722 274.901C339.82 273.131 339.414 271.328 338.66 269.404C336.922 264.975 334.332 260.744 332.68 258.405C330.476 255.285 328.285 251.809 324.921 247.62C320.71 242.376 316.339 239.31 313.295 236.951C310.294 234.625 306.835 231.456 304.496 229.732C301.895 227.814 296.143 225.277 292.532 223.474C290.039 222.23 287.448 221.688 285.245 220.929C279.987 219.118 271.088 217.695 266.351 216.943C262.148 216.275 257.501 216.045 250.082 215.703C238.513 215.169 230.379 215.905 229.556 216.386C227.956 217.32 225.845 217.143 223.851 217.761C221.934 218.356 220.211 220.162 218.693 222.088C217.242 223.93 216.077 225.525 214.842 227.519C213.771 229.248 212.918 232.116 212.501 234.531C212.164 236.484 211.268 238.312 210.919 240.375C210.499 242.86 209.618 245.869 208.927 248.69C208.14 251.902 207.415 255.216 206.864 257.974C206.452 260.039 206.178 263.054 205.695 266.222C205.341 268.547 205.076 270.078 204.802 270.901C204.022 273.242 204.66 260.191 205.278 257.786C205.887 255.42 208.083 251.413 211.115 246.859C212.728 244.436 214.551 242.453 216.069 240.733C217.969 238.581 220.054 237.091 224.992 233.795C228.177 231.669 231.183 230.763 233.666 229.32C236.034 227.943 239.978 226.506 247.58 224.648C252.084 223.547 260.322 222.67 267.933 222.039C275.543 221.408 282.349 221.408 286.74 221.68C295.599 222.229 300.598 226.614 305.024 229.169C309.843 231.951 315.613 236.109 318.088 237.831C321.89 240.477 323.179 242.577 325.856 245.318C329.872 249.43 330.744 251.512 331.571 253.164C332.533 255.086 334.316 257.279 335.9 260.308C337.466 263.303 338.169 265.941 339.612 268.699C340.573 270.532 341.06 271.728 341.335 272.143C342.917 274.535 338.193 261.049 334.679 254.907C333.033 252.031 331.032 249.334 328.97 246.649C326.982 244.06 321.85 239.046 317.835 235.783C316.505 234.703 313.448 232.97 307.9 230.433C300.814 227.194 295.149 226.222 292.749 225.879C288.23 225.235 282.25 223.891 278.031 223.334C276.022 223.069 272.338 222.645 268.011 222.577C265.446 222.537 258.895 222.233 249.892 222.369C244.635 222.448 242.486 223.602 238.303 224.908C231.102 227.156 227.512 228.684 224.197 230.887C221.42 232.733 219.93 234.6 218.008 235.977C215.63 237.682 214.436 241.191 212.711 243.674C211.357 245.626 210.443 247.659 209.409 250.204C208.572 252.266 207.968 254.259 207.277 256.394C206.72 258.114 206.178 259.762 205.695 265.978C205.352 270.4 205.625 278.58 205.693 283.06C205.79 289.479 206.994 293.57 207.889 297.772C209.098 303.444 210.294 306.366 211.396 308.643C212.733 311.408 213.041 314.616 214.147 316.757C215.266 318.925 216.201 323.27 217.925 327.818C218.79 330.099 220.054 332.221 221.638 335.383C222.756 337.615 224.179 339.787 225.214 341.507C226.781 344.109 228.989 346.931 230.575 349.478C232.706 352.902 234.904 355.181 236.83 357.456C238.312 359.206 240.539 361.368 243.084 364.19C245.384 366.741 246.866 368.521 248.518 370.245C250.036 371.83 251.816 373.339 253.468 375.125C254.197 375.913 254.984 376.503 255.193 376.986C255.731 378.233 253.07 374.453 251.486 371.774C250.232 369.651 247.848 367.036 245.713 364.143C243.629 361.317 240.704 357.145 238.22 352.735C236.398 349.499 234.92 347.368 231.693 341.468C230.31 338.94 229.418 336.916 228.248 334.717C226.556 331.536 225.433 328.121 224.534 326.052C223.514 323.707 222.133 320.16 220.891 317.322C219.713 314.628 219.79 312.578 218.829 310.175C217.266 306.269 217.175 303.643 215.805 298.017C215.143 295.297 214.84 292.787 214.632 288.798C214.538 287.002 214.015 285.353 213.602 277.922C213.236 271.316 213.462 258.92 213.53 252.267C213.615 243.95 214.559 241.496 215.314 239.496C216.387 236.654 218.816 234.616 220.126 232.69C221.249 231.038 223.758 228.849 225.899 227.051C227.884 225.383 229.814 224.031 231.948 222.581C232.433 222.237 232.841 221.829 233.256 221.55C233.671 221.272 234.079 221.136 234.5 220.995" stroke="black" stroke-width="10" stroke-linecap="round"/>
<path d="M206.719 336.35C206.879 335.182 206.773 332.765 206.321 330.347C205.939 328.306 205.391 324.588 205.091 320.713C204.79 316.839 204.79 312.915 204.737 310.496C204.667 307.278 204.469 305.507 204.416 303.902C204.353 302.004 204.042 300.519 203.987 300.219C203.793 299.153 204.199 303.077 204.706 305.743C205.031 307.449 205.372 309.894 205.669 311.522C205.967 313.149 206.179 313.892 206.951 316.979C207.723 320.066 209.049 325.475 210.368 329.984C211.687 334.494 212.96 337.941 213.854 340.486C215.282 344.549 215.877 346.524 216.277 347.378C217.188 349.324 217.749 350.272 218.287 351.104C218.713 351.762 219.622 352.468 220.455 353.566C221.837 355.39 221.875 357.022 222.409 359.524C222.785 361.289 223.681 364.513 224.118 366.312C224.771 368.996 224.877 370.41 225.144 371.644C225.246 372.119 225.304 372.822 225.465 373.678C225.536 374.054 225.52 374.322 225.493 372.204C225.467 370.087 225.414 365.58 225.148 361.8C224.882 358.019 224.405 355.103 223.761 352.381C223.117 349.659 222.322 347.219 221.276 344.531C220.23 341.843 218.957 338.979 217.639 336.39C216.32 333.802 214.994 331.574 214.258 330.348C213.522 329.121 213.416 328.962 214.687 333.414C215.959 337.865 218.61 346.933 220.135 351.605C221.66 356.276 221.978 356.276 222.306 356.276" stroke="black" stroke-width="10" stroke-linecap="round"/>
<path d="M207.182 326.873C206.961 330.552 210.412 335.312 213.684 342.256C216.667 348.587 219.332 353.334 221.389 356.918C223.55 360.682 225.179 366.122 228.333 375.455C229.918 380.144 230.401 383.714 231.27 387.52C232.233 391.735 233.005 395.226 233.334 402.157C233.826 412.528 233.018 429.513 231.927 432.664C230.512 436.753 230.622 440.36 230.622 441.789C230.622 450.794 231.924 425.463 233.005 410.634C233.624 402.141 233.226 386.866 233.011 378.577C232.717 367.206 231.065 362.918 230.514 359.76C230.122 357.505 231.481 364.624 232.679 369.283C234.001 374.422 234.529 378.284 235.176 381.878C236.019 386.552 236.912 390.876 237.24 399.005C237.316 400.872 237.563 401.945 237.673 409.804C237.784 417.663 237.784 432.273 237.569 440.445C237.255 452.375 235.401 455.778 234.532 460.007C233.682 464.14 231.065 469.23 230.407 472.599C230.255 473.379 229.762 474.009 229.649 474.019C227.05 474.241 230.83 466.235 231.813 459.196C234.085 442.933 231.273 440.393 231.166 439.087C230.966 436.667 230.192 445.361 229.863 449.697C229.5 454.487 228.89 459.685 228.128 463.803C227.213 468.752 226.715 471.834 226.067 474.663C225.454 477.343 224.332 479.869 223.463 482.476C222.594 485.084 221.943 487.252 222.154 487.48C226.512 492.173 227.353 478.814 229.961 473.609C232.186 469.168 234.086 466.222 235.176 463.399C236.696 459.467 236.912 455.804 237.348 449.739C237.54 447.06 238.435 443.661 238.543 439.758C238.603 437.551 239.086 428.1 238.979 414.323C238.919 406.713 237.784 402.857 236.596 399.266C235.688 396.523 234.75 393.52 233.666 390.043C232.534 386.412 230.843 384.183 229.326 381.576C227.808 378.965 226.077 375.94 224.117 373.111C222.333 370.535 220.647 367.906 218.909 365.298C217.07 362.54 215.438 359.441 213.592 356.401C211.957 353.706 209.578 351.628 207.84 349.021C206.102 346.413 203.94 343.815 201.547 341.748C199.485 339.966 199.591 336.653 198.721 334.045C197.852 331.438 196.986 328.84 196.117 326.232C195.248 323.624 194.382 321.026 193.62 318.311C193.294 315.16 192.643 313.207 192.318 311.693C192.207 310.824 192.207 309.749 192.207 308.643" stroke="black" stroke-width="10" stroke-linecap="round"/>
<path d="M189.211 317.557C189.325 321.682 189.783 323.749 190.356 325.87C191.067 328.502 192.648 330.175 193.342 331.672C193.97 333.027 194.831 334.652 196.323 336.491C197.652 338.131 198.503 340.163 199.539 341.945C200.446 343.504 201.602 345.328 202.696 346.995C204.208 349.301 205.508 351.183 206.484 352.793C208.118 355.488 210.673 358.071 211.936 359.624C213.256 361.248 214.572 362.892 215.726 364.446C216.953 366.098 218.36 368.058 219.514 369.611C221.059 371.692 222.844 374.257 223.933 376.04C224.807 377.471 225.482 378.852 226.402 380.231C227.374 381.69 228.237 383.329 229.1 384.708C229.905 385.994 230.648 387.461 231.225 388.841C231.798 390.22 232.715 391.594 233.634 392.973C233.865 393.319 234.092 393.66 234.671 394.012" stroke="black" stroke-width="10" stroke-linecap="round"/>
<path d="M185.721 291.646C185.721 290.639 185.386 288.44 185.13 286.075C184.942 284.34 184.539 282.52 184.2 281.504C183.862 280.489 183.692 279.309 183.439 278.207C183.003 276.303 183.017 273.389 182.72 272.206C182.266 270.395 182.424 268.996 182.213 266.678C181.604 259.97 181.916 257.425 181.706 255.466C181.497 253.526 181.409 251.835 181.157 250.56C180.906 249.293 180.734 247.771 180.438 246.672C180.061 245.277 179.973 243.886 179.677 242.109C179.355 240.182 179.212 239.148 179.084 237.921C178.962 236.747 178.619 235.429 178.198 233.949C177.649 232.02 177.437 230.443 176.846 228.75C176.255 227.056 175.915 225.537 175.324 224.225C174.808 223.079 174.14 222.154 173.549 221.138C172.935 220.083 172.029 219.11 171.224 218.136C170.499 217.259 169.747 216.487 168.562 215.558C167.571 214.78 166.703 214.118 165.687 213.317C164.746 212.574 163.659 212.176 162.433 211.498C161.37 210.911 160.362 210.567 159.346 210.018C158.391 209.502 157.318 209.299 156.302 208.961C155.287 208.622 154.107 208.285 152.921 207.946C152.583 207.861 152.164 207.777 151.823 207.692C151.482 207.607 151.231 207.524 150.465 207.438" stroke="black" stroke-width="10" stroke-linecap="round"/>
<path d="M214.267 289.109C214.267 286.006 214.562 279.139 215.233 275.931C215.965 272.428 217.692 267.809 219.328 263.639C220.433 260.826 222.458 256.935 224.616 253.132C227.506 248.038 233.305 241.608 238.99 236.958C241.819 234.644 243.768 233.676 245.93 233.072C248.876 232.249 253.443 229.947 256.213 228.827C258.143 228.047 260.606 227.711 263.215 227.26C267.606 226.5 272.374 226.218 275.14 225.992C282.166 225.419 292.951 225.914 296 226.435C300.91 227.274 302.34 229.339 304.131 230.162C306.164 231.096 309.038 232.764 311.656 234.554C314.41 236.438 319.018 239.909 322.013 242.971C324.193 245.2 326.332 247.51 328.57 249.902C333.785 255.476 336.026 263.159 337.146 265.777C338.055 267.902 338.861 270.617 340.2 273.673C341.102 275.732 341.391 277.923 341.843 280.455C341.952 281.065 342.285 281.499 342.438 280.99C343.65 276.924 341.257 272.888 339.911 269.45C338.221 265.132 337.528 262.595 336.187 260.058C334.096 256.103 333.057 253.653 331.121 251.113C328.968 248.289 326.207 244.854 324.191 242.692C322.241 240.602 318.767 238.156 312.44 234.724C306.773 231.65 301.026 230.542 297.458 229.502C295.639 228.972 293.89 228.167 288.256 226.976C282.622 225.784 273.179 224.161 266.028 223.325C254.352 221.96 248.409 222.784 246.325 223.231C243.658 223.804 240.96 224.573 238.718 225.541C236.14 226.653 233.654 227.845 229.634 230.081C226.156 232.016 224.56 233.81 222.993 235.596C220.728 238.178 219.489 240.213 217.553 243.119C215.15 246.726 213.382 250.944 212.481 252.886C212.282 253.316 212.184 253.778 212.108 253.564C211.739 252.524 212.179 251.109 212.55 250.143C213.477 247.731 217.227 245.015 219.773 242.319C221.883 240.085 224.837 239.336 228.852 236.958C235.975 232.738 239.887 232.183 243.614 231.062C247.747 229.82 251.82 228.601 252.27 228.378C253.873 227.58 247.22 229.196 242.979 230.157C234.936 231.98 233.502 235.598 231.34 237.906C229.606 239.756 227.394 242.296 224.56 246.989C223.056 249.478 222.172 252.437 221.423 254.228C220.675 256.017 219.194 257.802 217.477 259.222C215.833 260.582 215.313 262.278 214.792 262.654C213.038 263.919 216.342 256.935 219.472 250.903C221.319 247.343 223.943 245.301 225.588 243.065C228.274 239.416 235.255 236.511 238.326 234.939C241.99 233.065 245.986 232.183 250.535 230.841C260.603 227.873 265.52 228.901 271.52 228.454C282.949 227.602 290.72 228.449 291.833 228.746C294.983 229.588 297.717 230.233 300.994 231.501C304.333 232.792 306.659 234.4 309.121 236.49C311.82 238.783 314.108 240.955 316.203 243.05C317.921 244.768 319.331 246.624 320.603 248.415C321.821 250.131 322.907 252.437 324.995 255.415C326.646 257.768 327.826 260.333 329.172 262.276C330.397 264.045 331.555 265.85 332.675 267.715C333.938 269.818 334.684 272.405 336.176 275.461C337.144 277.446 338.261 279.559 338.787 281.723C339.582 284.998 340.801 287.16 341.543 289.176C341.695 290.29 341.843 291.341 342.14 292.232C342.29 292.682 342.438 293.125 343.037 293.581" stroke="black" stroke-width="10" stroke-linecap="round"/>
<path d="M365.035 222.114C365.771 221.87 366.753 221.213 367.78 220.598C369.003 219.867 370.604 219.165 372.578 218.3C373.886 217.728 375.773 217.52 377.46 217.232C380.258 216.754 382.09 216.944 388.331 216.74C393.087 216.584 402.188 216.698 407.078 216.738C413.446 216.791 415.9 217.269 417.874 217.477C419.469 217.645 421.237 218.337 422.961 218.707C425.037 219.151 426.652 219.568 428.377 219.938C430.398 220.37 431.822 220.883 433.22 221.291C434.427 221.644 435.761 222.192 436.955 222.605C438.173 223.025 439.291 223.916 441.135 224.735C444.16 226.08 445.199 227.278 446.309 228.019C447.418 228.76 448.399 229.578 449.51 230.48C450.662 231.416 451.762 232.773 452.915 233.763C454.065 234.749 454.721 235.894 455.541 237.207C456.685 239.037 457.591 239.996 458.496 241.065C459.186 241.881 459.561 243.034 460.261 244.224C460.831 245.191 461.53 246.721 462.067 247.999C462.614 249.302 463.175 250.419 463.544 251.445C464.047 252.845 464.489 254.274 464.775 255.343C465.102 256.567 465.636 257.804 465.801 258.994C465.995 260.395 466.537 262.314 466.95 264.161C467.321 265.824 467.36 267.159 467.688 268.634C468.035 270.192 468.182 271.831 468.427 273.313C468.645 274.633 468.837 276.1 468.961 278.192C469.067 279.982 469.413 281.919 469.658 283.488C469.889 284.969 470.068 286.114 470.192 287.63C470.338 289.415 470.644 292.007 470.848 294.276C470.983 295.778 470.971 297.029 471.094 299.471C471.201 301.586 471.136 305.488 471.217 307.781C471.319 310.651 471.628 313.828 471.669 317.889C471.692 320.179 472.037 321.317 472.161 325.367C472.221 327.326 472.613 330.41 472.858 332.271C473.105 334.118 473.187 335.351 473.31 337.101C473.352 338.608 473.352 341.37 473.352 344.216" stroke="black" stroke-width="10" stroke-linecap="round"/>
<path d="M183.404 267.029C183.404 264.222 183.137 258.543 182.328 256.789C181.351 254.673 180.848 252.613 180.17 250.856C179.539 249.219 178.154 247.889 177.003 246.407C175.91 244.999 174.918 243.173 173.701 241.553C172.531 239.997 171.545 238.319 170.398 236.633C168.934 234.48 167.233 232.39 165.613 230.699C164.255 229.282 162.517 228.07 160.357 226.588C158.218 225.12 156.717 223.888 155.097 223.281C153.309 222.612 151.597 221.194 149.503 220.517C147.655 219.919 146.063 219.168 145.655 218.966C143.094 217.698 151.977 221.049 154.474 222.129C158.138 223.713 161.417 225.498 163.241 226.578C166.037 228.233 169.644 230.214 171.264 231.431C172.82 232.601 174.497 233.854 175.715 235.074C175.906 235.265 176.253 234.679 176.39 234.073C176.972 231.505 175.056 229.292 172.627 226.054C171.129 224.058 169.393 222.278 166.902 220.523C161.909 217.005 159.419 216.745 157.122 216.001C156.005 215.639 154.695 215.257 153.815 215.324C150.799 215.552 160.875 219.56 164.179 221.318C166.78 222.701 168.964 224.689 172.607 227.718C173.11 228.137 173.025 227.536 172.756 227.128C171.446 225.138 168.584 223.621 165.417 222.541C162.724 221.623 158.489 220.119 155.303 219.572C151.848 218.98 149.17 218.63 146.405 218.426C143.764 218.231 140.271 217.821 126.362 217.75C121.756 217.727 119.644 219.431 117.551 219.839C115.537 220.232 113.577 221.858 111.352 223.138C107.295 225.473 105.35 226.711 103.394 228.396C100.778 230.65 97.123 234.259 95.3717 236.214C93.929 237.825 92.4069 240.051 90.1824 242.617C88.7026 244.324 87.6828 245.588 87.345 245.861C85.8081 247.103 89.0256 242.364 90.4372 240.342C91.9977 238.106 93.8711 236.435 95.6285 234.275C97.257 232.273 99.2667 230.772 101.289 229.015C103.389 227.19 105.334 225.644 107.356 224.094C109.593 222.381 111.263 221.057 112.685 219.779C113.041 219.458 113.423 219.172 113.362 218.901C112.82 216.478 107.243 218.622 104.945 219.835C102.152 221.311 99.5579 224.276 97.2605 226.238C95.0461 228.129 93.3534 230.214 91.596 232.303C89.5606 234.723 88.2248 237.357 86.7424 239.181C85.2416 241.028 84.5846 242.752 82.8332 246.251C80.1119 251.687 78.5176 259.603 77.8401 261.627C76.8401 264.615 76.4952 266.883 75.4153 270.719C74.3041 274.667 73.9309 277.391 72.9885 280.164C71.9099 283.337 71.0997 285.755 69.4858 288.924C67.8282 292.179 67.1925 294.524 66.1813 296.678C65.0242 299.143 63.9527 301 63.7505 301.339C62.9538 302.678 65.0246 298.18 66.4402 296.091C68.0507 293.715 70.0076 290.908 73.9795 284.38C76.8664 279.635 78.0969 276.889 79.1162 274.653C80.0298 272.648 81.4702 270.28 82.3519 268.114C83.7085 264.782 85.2479 260.169 85.9254 257.6C86.6615 254.81 86.7363 251.279 87.1388 248.364C87.8842 242.966 87.8122 234.817 88.2854 232.188C88.7776 229.454 88.7587 226.736 89.1611 224.566C89.4956 222.762 90.239 220.66 90.779 218.501C91.2969 216.429 92.5283 214.86 94.0106 212.972C94.3664 212.518 94.8176 212.296 94.9571 212.492C96.0987 214.097 94.4212 216.859 93.683 218.958C92.918 221.133 92.8033 223.872 92.4009 226.103C92.2382 227.004 91.9944 227.925 92.2613 228.667C92.3759 228.986 93.0622 228.742 93.4039 228.473C94.7585 227.407 95.6265 225.377 96.575 223.488C97.4316 221.782 98.9997 220.256 100.013 218.163C100.422 217.318 100.622 216.474 100.49 215.801C99.6872 211.687 89.0499 214.723 85.7353 214.314C83.6781 214.061 81.6239 212.571 79.8665 211.619C77.2444 210.197 72.5881 210.945 69.6941 210.674C66.1998 210.347 64.0943 209.732 61.2671 209.528C57.0902 209.226 52.7692 208.923 49.7398 208.45C46.7243 207.979 42.3987 207.305 39.2217 206.765C36.9629 206.381 34.5683 205.954 33.7553 205.954C32.9666 205.954 41.242 207.155 50.4072 209.176C55.9601 210.4 58.6825 212.288 61.714 213.633C67.1645 216.051 72.8389 220.911 74.8652 222.867C76.5564 224.499 78.2344 227.375 79.9211 230.076C81.9211 233.28 82.1497 235.335 82.6896 237.428C83.4747 240.471 82.8292 224.034 81.9535 221.334C81.1398 218.825 81.0738 217.016 81.0738 216.806C81.0738 212.561 82.0122 223.467 83.2256 228.448C84.579 234.005 86.1943 237.765 86.3986 238.71C86.4586 238.987 85.9355 238.853 85.6625 238.451C85.02 237.504 84.3176 234.558 82.1699 229.587C79.3625 223.089 75.4274 217.57 72.667 214.001C70.9639 211.799 69.8863 210.812 69.4151 210.405C67.754 208.972 69.4737 216.325 70.4849 219.688C72.4839 226.337 73.6478 230.327 74.667 234.657C75.1117 236.546 75.4113 238.036 75.5447 239.246C75.7125 240.766 76.2202 248.087 76.0867 258.264C76.0103 264.09 74.8774 267.02 74.4689 269.579C73.9467 272.849 73.2595 274.972 71.8439 279.818C70.8789 283.121 69.6193 286.03 69.0773 288.32C68.2274 291.909 66.788 293.578 65.5079 296.809C63.4952 301.89 61.6675 305.574 60.5168 308.274C59.5335 310.581 59.6371 312.588 59.2346 314.412C58.7135 316.774 58.1567 319.197 57.6835 321.484C57.4655 322.538 57.6148 324.293 57.4813 324.986C57.3478 325.68 57.0809 325.28 57.0768 324.873C57.0576 322.944 59.4915 319.9 61.2469 316.725C64.5204 310.804 65.1621 309.101 66.5069 307.214C68.4016 304.556 68.9317 302.363 70.2159 300.27C71.4673 298.23 73.1139 296.296 74.2606 294.472C75.5898 292.357 77.1586 290.633 78.6409 288.407C80.2721 285.957 82.0122 283.895 83.9637 281.264C86.6137 277.691 87.2702 275.263 88.8861 272.703C91.3049 268.871 91.4524 266.77 92.3948 263.872C93.3268 261.006 93.7417 258.009 94.1502 254.437C94.6244 250.292 95.0926 247.088 95.5658 243.859C96.8002 235.434 96.4435 232.665 96.846 230.566C97.1149 229.559 97.3859 228.608 97.5882 227.601C97.6569 226.994 97.6569 226.194 98.0614 224.964" stroke="black" stroke-width="10" stroke-linecap="round"/>
<path d="M26.0662 208.381C25.9287 208.239 27.0046 210.395 28.0178 212.148C29.2706 214.316 29.4314 216.729 30.1756 219.693C31.3682 224.444 31.1868 230.214 31.2576 235.257C31.3008 238.339 29.9815 242.331 29.2373 245.515C28.6243 248.137 27.4172 250.971 26.408 253.333C24.6794 257.379 23.2431 260.403 22.2258 262.375C21.8917 263.022 23.3604 259.359 25.1097 256.065C26.8612 252.767 28.0805 247.112 29.2939 239.181C30.6159 230.539 29.573 225.105 29.3707 223.827C28.5238 218.475 25.5323 210.411 24.5879 207.988C22.9426 203.767 21.4877 201.788 20.4745 199.155C19.5698 196.804 17.985 194.103 16.8343 191.872C15.5226 189.33 13.5359 185.472 12.0515 182.911C9.71484 178.881 8.94923 176.978 7.93604 174.482C7.01846 172.222 6.52244 169.697 6.11392 167.604C5.57029 164.819 5.30499 161.467 5.10276 153.719C4.91103 146.374 5.034 132.09 5.10074 124.466C5.17217 116.306 5.57194 114.957 5.77417 109.806C5.94485 105.459 5.84293 97.5811 5.90967 93.3241C5.97641 89.0671 6.10988 88.6666 6.17864 82.9879C6.2474 77.3092 6.2474 66.3644 6.31414 60.5259C6.38548 54.2842 6.65186 49.3363 6.7186 42.1935C6.76191 37.5583 7.32328 34.6057 7.52753 29.1555C7.61826 26.7347 8.26973 24.3646 8.67217 22.2654C9.05453 20.271 9.75008 18.427 10.29 16.6029C10.9136 14.4964 12.5733 12.36 13.9949 10.6694C15.1881 9.25053 17.1599 9.11622 18.7798 8.24055C20.4125 7.35794 23.4857 7.36084 25.9914 6.62268C28.0465 6.01726 30.5073 5.88049 33.201 5.67623C36.7059 5.41048 41.0234 5.07156 52.3788 5.00078C56.5402 4.97484 59.4913 5.60545 61.5824 6.07868C64.8259 6.8127 69.1743 6.95637 72.503 7.62778C75.7704 8.28681 79.5609 8.57423 82.5479 9.24565C85.4732 9.90318 87.1326 10.459 90.7667 10.73C93.542 10.937 96.9692 11.6724 100.601 12.1457C105.639 12.8021 109.516 12.3479 110.792 12.5501C112.468 12.6189 114.098 12.7524 121.116 12.9546C127.466 13.0234 139.479 13.0234 151.855 13.0234" stroke="black" stroke-width="10" stroke-linecap="round"/>
<path d="M76.9647 239.008C76.9647 238.077 76.5007 236.203 75.6202 234.738C74.6833 233.178 73.5762 231.402 72.0489 229.817C70.5169 228.226 69.0067 226.713 67.5374 225.597C66.2147 224.592 64.6691 224.013 63.1454 223.31C61.2024 222.414 53.1328 222.488 48.4983 222.837C47.0186 222.949 45.688 223.542 44.572 224.417C43.3968 225.339 41.47 225.18 40.0622 225.999C38.5998 226.85 37.4839 228.105 36.5454 229.512C35.6069 230.92 34.6719 232.323 33.9671 233.615C33.8076 233.907 33.3854 233.968 33.2061 233.274C32.151 229.187 33.3784 227.416 34.3116 225.133C34.9687 223.525 35.7194 222.143 36.9461 220.735C38.4563 219.002 40.6334 218.389 42.4524 217.978C43.894 217.652 45.3224 217.567 47.1379 216.983C48.1999 216.642 49.1925 216.748 49.7197 216.746C49.9323 216.745 49.899 217.208 49.725 217.561C48.8994 219.238 47.094 220.14 45.6862 221.136C44.0257 222.312 42.5245 223.887 41.4665 225.294C40.4499 226.647 39.5929 228.105 38.4207 229.512C37.4133 230.722 37.0129 232.323 36.2519 233.731C35.5368 235.053 35.2554 236.541 34.4364 238.24C33.6802 239.81 32.5629 241.11 31.9741 242.518C31.3859 243.925 30.6859 245.328 29.9829 246.736C29.3346 248.034 28.6964 249.546 28.1076 251.246C27.5904 252.739 26.8193 254.116 26.3501 255.524C25.8808 256.931 25.4133 258.334 24.9441 260.091C24.4807 261.827 24.3588 263.255 23.9476 264.779C23.4258 266.712 23.5363 268.64 23.1866 270.287C22.672 272.71 22.6013 276.725 22.4238 278.721C22.3818 279.194 22.2498 279.656 22.1901 283.085C22.1303 286.514 22.1303 292.894 22.1883 296.354C22.2699 301.225 22.9458 303.79 23.2428 305.787C23.5255 307.687 23.8878 309.998 24.1796 311.938C24.5208 314.208 24.5908 323.517 24.0073 326.784C22.1508 337.179 23.3043 313.66 22.8931 311.717C22.417 309.467 22.1303 306.855 21.7806 304.864C21.5094 303.32 20.9633 301.238 20.6083 297.606C20.2873 294.321 18.9668 291.389 18.3253 288.932C17.6933 286.512 17.6803 284.598 17.5028 282.486C17.3032 280.111 16.8578 271.311 17.2655 265.672C17.4449 263.19 18.3762 260.928 18.965 259.343C19.6185 257.583 20.1338 255.655 20.4888 254.128C20.8575 252.542 22.0108 251.086 23.0038 249.095C24.8914 245.309 25.6383 242.889 26.3466 240.773C26.9706 238.908 27.4028 236.33 27.9863 233.746C28.815 230.077 28.4573 227.655 28.7491 224.846C29.3556 219.007 28.4573 217.574 27.8738 214.941C27.6314 213.847 26.8264 210.217 25.1884 204.949C23.526 199.604 21.8983 197.187 21.1373 195.487C20.4822 194.024 19.3253 192.617 18.8508 191.151C18.1414 188.96 15.4658 185.833 14.341 183.828C13.3721 182.1 10.6643 178.69 9.07022 176.038C8.77671 175.509 8.42873 174.929 8.13346 174.457C7.8382 173.984 7.60621 173.636 7.36719 173.277" stroke="black" stroke-width="10" stroke-linecap="round"/>
<path d="M132.343 216.723C132.666 216.723 133.479 216.723 134.538 216.965C136.424 217.396 136.415 220.628 137.235 222.588C138.032 224.495 138.217 229.247 138.378 234.633C138.428 236.312 138.863 235.82 139.19 235.328C140.497 233.368 141.799 231.415 143.106 229.455C144.413 227.495 146.038 225.542 147.998 224.15C148.861 223.537 149.958 223.413 150.45 223.088C150.931 222.769 148.827 222.596 147.606 222.838C145.091 223.337 143.61 225.689 141.569 227.157C138.99 229.013 138.06 231.396 137.321 233.437C136.503 235.696 136.259 239.05 135.772 242.082C135.432 244.201 134.467 246.079 133.814 248.851C133.292 251.068 132.02 253.254 131.286 255.38C130.512 257.623 129.25 259.783 128.673 261.177C127.767 263.366 132.167 256.543 133.481 254.335C134.908 251.939 136.572 249.368 137.805 246.994C139.002 244.69 139.518 242.672 140.253 240.712C141.112 238.418 142.455 236.31 143.108 234.269C143.905 231.78 144.413 229.458 145.147 227.497C146.37 225.537 147.995 223.907 149.143 222.275C149.468 221.945 149.953 221.783 151.431 221.128" stroke="black" stroke-width="10" stroke-linecap="round"/>
<path d="M128.918 284.264C128.918 283.941 129.079 283.29 129.566 282.475C129.804 282.077 130.376 281.983 130.788 282.142C131.199 282.301 131.522 282.785 131.446 283.197C131.37 283.608 130.885 283.931 130.555 283.855C130.225 283.779 130.063 283.294 129.897 282.795" stroke="black" stroke-width="10" stroke-linecap="round"/>
<path d="M160.121 531.355C160.754 531.035 162.884 530.824 165.648 530.45C172 529.59 176.088 529.014 178.339 528.744C180.279 528.511 182.387 527.735 184.359 527.465C186.246 527.207 187.931 526.456 190.162 526.028C195.046 525.091 196.877 523.899 199.014 523.363C200.553 522.977 202.421 522.402 204.024 521.819C206.077 521.072 208.284 520.701 209.992 520.378C211.75 520.046 213.4 519.423 214.948 518.94C216.951 518.315 219.149 518.246 221.182 518.988C223.249 519.742 224.379 521.226 231.549 524.786C235.502 526.749 237.591 526.981 239.672 527.516C241.427 527.968 243.135 528.368 246.169 528.53C248.18 528.637 249.638 529.328 253.625 529.489C255.94 529.583 257.842 529.967 260.823 530.129C262.971 530.245 265.515 530.606 269.844 530.715C271.647 530.76 261.5 530.715 257.919 530.662C254.338 530.61 253.916 530.504 250.533 530.45C247.15 530.395 240.82 530.395 237.295 530.343C232.158 530.266 229.834 529.756 227.542 529.491C222.715 528.932 221.406 529.011 216.493 528.851C212.005 528.705 203.457 528.797 198.896 528.85C193.258 528.915 190.936 529.436 189.221 529.754C187.211 530.127 184.427 530.287 182.983 530.237C180.058 530.137 189.408 529.014 193.782 528.691C198.496 528.343 202.095 527.735 204.502 527.412C206.528 527.141 208.815 526.456 211.162 525.974C212.948 525.606 214.468 525.389 215.748 524.962C217.24 524.535 218.733 524.215 219.689 524.055C220.223 524.001 220.856 524.001 221.508 524.001" stroke="black" stroke-width="10" stroke-linecap="round"/>
<path d="M402.92 531.763C407.606 531.763 417.665 531.479 420.82 530.976C423.241 530.591 427.251 530.473 431.062 530.117C434.108 529.831 436.446 529.902 439.715 529.687C453.611 528.773 456.207 530.044 459.008 530.4C462.36 530.827 465.235 530.903 468.104 531.26C473.379 531.916 477.4 531.763 478.369 531.763C488.04 531.763 460.386 531.621 458.675 531.406C453.684 530.779 446.544 530.903 441.476 530.547C438.321 530.324 435.745 529.76 433.45 529.543C431.137 529.324 428.867 528.9 417.652 528.825C413.64 528.798 411.389 529.614 408.876 529.97C406.379 530.325 403.513 530.473 400.85 530.901C398.488 531.333 395.337 531.617 392.902 532.12C391.903 532.193 390.342 532.193 388.734 532.193" stroke="black" stroke-width="10" stroke-linecap="round"/>
</svg>
