<svg width="1122" height="142" viewBox="0 0 1122 142" fill="none" xmlns="http://www.w3.org/2000/svg">
<path d="M6.49261 114.155C3.57633 93.8423 5.50108 49.7663 7.45498 42.8449C9.30807 36.2808 19.0909 31.1567 29.7791 26.8479C40.6269 22.4747 53.0948 19.218 67.195 17.0564C79.0443 15.2399 98.7054 13.95 114.832 12.5257C139.314 10.3635 172.662 10.1422 189.183 9.4193C218.201 8.14952 263.067 7.2792 296.4 5.60434C320.862 4.37525 367.178 5.36098 392.419 5.59718C417.659 5.83338 420.546 6.30578 456.679 6.54913C492.812 6.79249 562.102 6.79249 599.723 7.02869C641.214 7.28919 649.008 8.69639 669.276 9.41214C747.971 12.1912 780.999 11.087 809.841 12.2752C834.643 13.2969 877.119 13.95 930.181 15.1382C1005.71 16.8294 1059.24 15.8539 1065.06 16.8059C1076.74 18.7169 1088.37 20.6208 1100.05 22.7681C1106.36 23.9268 1109.81 26.8192 1111.75 29.6751C1123.09 46.3738 1112.75 76.9076 1111.28 83.8289C1109.97 90.0002 1102.08 95.5172 1096.72 101.25C1090.97 107.392 1081.67 112.695 1070.98 117.004C1060.53 121.218 1047.66 123.202 1033.56 124.412C1021.11 125.48 1003.98 127.039 989.323 128.463C960.728 131.243 913.514 130.847 868.137 132.522C833.527 133.799 767.992 132.765 732.355 133.001C692.846 133.263 686.015 134.669 628.229 135.385C573.345 136.064 466.507 135.628 409.552 135.864C352.597 136.1 348.747 136.573 305.863 136.816C262.98 137.059 181.178 137.059 137.594 136.823C85.1544 136.539 65.9264 134.196 49.7994 132.772C42.4021 132.119 34.7222 131.333 27.4461 130.861C17.1954 127.053 11.392 121.342 6.98838 114.664C6.49261 112.28 6.49261 108.973 6.49261 105.566" stroke="black" stroke-width="10" stroke-linecap="round"/>
</svg>
