<svg width="102" height="100" viewBox="0 0 102 100" fill="none" xmlns="http://www.w3.org/2000/svg">
<circle cx="51.5" cy="50.5001" r="44.5" fill="white"/>
<path d="M50 23.0001C50 23.3565 50 23.7129 50 29.8662C50 36.0195 50 47.9589 50 54.3768C50 62.4266 50 64.5693 50 72.5586C50 74.2947 50 74.8293 50 75.372C50 75.9147 50 76.4493 50 77.0001" stroke="black" stroke-width="10" stroke-linecap="round"/>
<path d="M24 49.0001C26.5457 49.0001 32.7667 49.0001 40.751 49.0826C44.9254 49.1258 53.8598 49.5001 66.4341 49.5826C71.1894 49.6651 72.6441 49.8301 74.0299 49.9151C75.4157 50.0001 76.6886 50.0001 78 50.0001" stroke="black" stroke-width="10" stroke-linecap="round"/>
<path d="M72.4302 90.0526C69.4248 91.3709 66.4194 92.4967 63.8716 93.3511C62.5346 93.7994 61.1374 93.8206 56.4683 94.3864C44.7985 95.8005 35.5349 94.3921 33.0916 93.9225C29.1923 93.1731 23.3269 90.0753 19.2425 87.3256C16.5299 85.4995 12.7628 80.6609 7.48074 69.7274C2.74565 59.9261 6.14186 49.1476 6.70679 44.9977C7.49715 39.1917 9.90427 36.5084 11.1302 33.3005C12.7441 29.0771 15.5422 25.5777 17.6268 22.2651C19.3751 19.4869 22.3326 16.7065 25.7109 14.251C32.2325 9.51092 35.1338 8.77441 38.707 7.92576C43.6695 6.74712 48.8615 5.75321 55.0701 5.28363C70.1245 4.14497 72.7918 6.69239 75.7153 8.38686C78.3406 9.9085 81.4577 11.9653 85.0337 14.7008C88.9179 17.6721 92.5642 24.9667 94.2703 29.0289C96.0731 33.3215 96.3379 40.7856 96.8152 44.8761C97.3949 49.8434 96.5413 58.1546 95.2193 62.1292C94.4233 64.5224 93.8974 66.8448 91.8354 72.0216C90.3632 75.7178 88.4402 78.1602 86.6551 80.0499C84.5684 82.2586 82.983 84.3836 80.9126 86.0866C78.8112 87.815 76.0232 88.7287 73.0997 89.8603C71.8766 90.0526 70.7411 90.426 69.6141 91.0852C69.0463 91.3709 68.4871 91.5576 66.781 92.3157" stroke="black" stroke-width="10" stroke-linecap="round"/>
</svg>
