<svg width="102" height="100" viewBox="0 0 102 100" fill="none" xmlns="http://www.w3.org/2000/svg">
<circle cx="51.5" cy="50.5002" r="44.5" fill="white"/>
<path d="M63.7383 26.7542C63.5569 27.061 63.3756 27.3678 60.2447 32.665C57.1138 37.9622 51.0388 48.2405 47.7732 53.7655C43.6773 60.6953 42.5871 62.54 38.5219 69.4177C37.6386 70.9123 37.3666 71.3725 37.0904 71.8397C36.8143 72.3069 36.5423 72.7671 36.262 73.2413" stroke="black" stroke-width="10" stroke-linecap="round"/>
<path d="M29.4844 33.1819C31.5409 34.6824 36.5663 38.3492 42.9676 43.122C46.3143 45.6174 53.311 51.186 63.4202 58.6643C67.213 61.5338 68.2909 62.5245 69.3603 63.41C70.4297 64.2955 71.4579 65.0458 72.5173 65.8188" stroke="black" stroke-width="10" stroke-linecap="round"/>
<path d="M72.4302 90.0528C69.4248 91.371 66.4194 92.4969 63.8716 93.3512C62.5346 93.7995 61.1374 93.8208 56.4683 94.3865C44.7985 95.8006 35.5349 94.3922 33.0916 93.9226C29.1923 93.1732 23.3269 90.0754 19.2425 87.3258C16.5299 85.4996 12.7628 80.661 7.48074 69.7275C2.74565 59.9263 6.14186 49.1477 6.70679 44.9978C7.49715 39.1919 9.90427 36.5085 11.1302 33.3006C12.7441 29.0772 15.5422 25.5778 17.6268 22.2653C19.3751 19.4871 22.3326 16.7066 25.7109 14.2512C32.2325 9.51104 35.1338 8.77454 38.707 7.92588C43.6695 6.74724 48.8615 5.75333 55.0701 5.28375C70.1245 4.14509 72.7918 6.69251 75.7153 8.38698C78.3406 9.90862 81.4577 11.9655 85.0337 14.701C88.9179 17.6722 92.5642 24.9668 94.2703 29.029C96.0731 33.3216 96.3379 40.7857 96.8152 44.8762C97.3949 49.8435 96.5413 58.1548 95.2193 62.1293C94.4233 64.5225 93.8974 66.845 91.8354 72.0217C90.3632 75.7179 88.4402 78.1603 86.6551 80.05C84.5684 82.2588 82.983 84.3838 80.9126 86.0867C78.8112 87.8151 76.0232 88.7289 73.0997 89.8604C71.8766 90.0528 70.7411 90.4262 69.6141 91.0853C69.0463 91.371 68.4871 91.5577 66.781 92.3158" stroke="black" stroke-width="10" stroke-linecap="round"/>
</svg>
