<svg width="1122" height="122" viewBox="0 0 1122 122" fill="none" xmlns="http://www.w3.org/2000/svg">
<path d="M6.49261 97.6167C3.57633 80.3814 5.50108 42.9835 7.45498 37.1109C9.30807 31.5413 19.0909 27.1936 29.7791 23.5376C40.6269 19.8271 53.0948 17.0638 67.195 15.2297C79.0443 13.6884 98.7054 12.594 114.832 11.3855C139.314 9.55089 172.662 9.36314 189.183 8.74976C218.201 7.67237 263.067 6.93392 296.4 5.51282C320.862 4.46995 367.178 5.30634 392.419 5.50675C417.659 5.70716 420.546 6.10798 456.679 6.31446C492.812 6.52095 562.102 6.52095 599.723 6.72136C641.214 6.94239 649.008 8.13638 669.276 8.74368C747.971 11.1017 780.999 10.1648 809.841 11.1729C834.643 12.0398 877.119 12.594 930.181 13.6021C1005.71 15.0371 1059.24 14.2094 1065.06 15.0171C1076.74 16.6387 1088.37 18.2541 1100.05 20.076C1106.36 21.0591 1109.81 23.5133 1111.75 25.9365C1123.09 40.1051 1112.75 66.0126 1111.28 71.8852C1109.97 77.1214 1102.08 81.8025 1096.72 86.667C1090.97 91.8778 1081.67 96.3778 1070.98 100.034C1060.53 103.61 1047.66 105.293 1033.56 106.319C1021.11 107.226 1003.98 108.548 989.323 109.757C960.728 112.115 913.514 111.779 868.137 113.2C833.527 114.284 767.992 113.407 732.355 113.607C692.846 113.829 686.015 115.022 628.229 115.629C573.345 116.206 466.507 115.836 409.552 116.036C352.597 116.237 348.747 116.638 305.863 116.844C262.98 117.05 181.178 117.05 137.594 116.85C85.1544 116.609 65.9264 114.621 49.7994 113.413C42.4021 112.858 34.7222 112.192 27.4461 111.791C17.1954 108.56 11.392 103.714 6.98838 98.0479C6.49261 96.0256 6.49261 93.2198 6.49261 90.3291" stroke="black" stroke-width="10" stroke-linecap="round"/>
</svg>
