<svg width="223" height="348" viewBox="0 0 223 348" fill="none" xmlns="http://www.w3.org/2000/svg">
<path d="M130.832 339.683C134.804 334.22 144.219 318.648 152.672 290.095C159.19 268.08 159.03 251.955 159.484 243.407C159.915 235.303 159.69 228.529 160.251 221.601C160.924 213.304 158.638 199.183 152.482 176.012C148.788 162.107 140.518 146.851 136.092 137.688C128.748 122.483 125.057 116.885 120.897 109.595C119.221 107.253 117.291 104.483 115.721 102.38C111.14 96.2432 100.041 91.4676 98.7322 90.1177" stroke="black" stroke-width="9" stroke-linecap="round"/>
<path d="M130.42 342.305C137.46 339.443 144.959 335.989 151.446 333.549C158.259 331.994 163.635 330.846 166.07 330.568C167.314 330.571 168.578 330.868 169.879 331.173" stroke="black" stroke-width="9" stroke-linecap="round"/>
<path d="M129.567 341.426C127.648 337.923 125.078 333.26 122.683 327.987C121.292 324.784 119.644 321.545 117.127 318.187C115.527 316.279 113.273 313.955 110.951 311.56" stroke="black" stroke-width="9" stroke-linecap="round"/>
<path d="M5.89844 108.016C5.89844 106.827 6.19459 104.436 6.86766 102.638C7.6107 100.655 8.88688 99.051 10.0064 97.3279C11.3365 95.2809 13.9663 93.9626 15.7634 92.4661C17.3078 91.1801 19.6471 90.669 21.9692 90.07C24.3963 89.4438 27.4278 89.3228 33.3957 89.3184C36.5375 89.316 38.1969 90.8126 39.994 91.8581C41.7931 92.9047 43.5815 93.801 45.3786 94.9991C47.1757 96.1972 49.2623 97.0946 51.5844 98.4385C53.3831 99.4795 55.2481 100.532 57.1193 102.102C59.1466 103.804 61.5301 104.274 63.3272 105.246C65.4762 106.407 69.1493 107.119 71.7765 107.565C76.2732 108.33 83.5172 107.424 85.3143 106.672C87.1098 105.921 88.9017 104.732 90.3264 103.161C91.8992 101.739 92.7966 99.9484 93.3216 97.7811C93.3979 96.96 93.3979 95.7754 93.3979 94.5549" stroke="black" stroke-width="10" stroke-linecap="round"/>
<path d="M5 105.772C5.14808 104.879 6.04102 103.089 7.16505 101.218C8.48263 99.0245 8.73331 96.0621 9.48491 94.0384C10.2845 91.8854 11.1294 90.0762 12.1009 87.9067C12.9929 85.9146 14.1179 83.7942 14.5711 81.6247C15.091 79.1359 17.1063 75.4302 18.3829 72.5763C19.3995 70.3039 19.9512 68.0892 20.7028 65.8456C21.4418 63.6396 21.8986 61.8072 22.4236 60.0101C22.9727 58.1306 23.2448 55.6777 23.4714 53.654C23.7199 51.4341 24.2947 49.0996 24.7412 46.6249C25.0833 44.7286 25.4883 42.665 25.7149 38.4067C25.8717 35.4613 26.3858 33.0894 26.6124 29.8026C26.7592 27.6723 27.2832 25.91 27.5098 18.8988C27.5838 17.3799 27.7319 16.9357 27.8082 16.4847C27.8845 16.0338 27.8845 15.5895 27.8845 15.1318" stroke="black" stroke-width="10" stroke-linecap="round"/>
<path d="M91.6022 97.247C91.6022 95.7617 91.8984 92.7688 92.4234 90.7496C93.1644 87.8996 93.3971 86.0381 94.142 83.8685C94.7675 82.0466 95.192 79.6125 96.3093 76.393C97.0805 74.1705 97.283 71.3831 97.5096 69.061C97.8946 65.1155 98.1804 58.819 98.407 53.4434C98.5346 50.4165 99.0778 48.346 99.3044 45.656C99.5474 42.7715 100.128 40.7179 100.5 38.5483C100.848 36.5225 101.474 33.5474 101.92 31.2926C102.478 28.478 102.964 23.9718 103.417 19.635C103.738 16.5642 104.759 13.3463 105.212 9.31455C105.483 6.90291 106.558 5.71361 106.708 5.26265C107.172 3.87241 104.92 8.39244 103.648 10.1155C102.376 11.8382 100.137 12.5834 98.3397 13.7075C96.712 14.7255 94.7522 14.6834 92.9551 15.1299C90.9798 15.6206 88.9189 16.3257 86.7494 16.5523C80.7509 17.1788 70.5216 16.3347 68.7245 15.2107C66.9925 14.1274 65.137 12.745 63.3399 12.2918C61.3239 11.7834 59.7524 10.0527 57.9553 8.55622C56.4584 7.30973 52.591 6.31937 47.6439 5.63508C42.4634 4.91852 34.6244 5.85271 32.8273 7.12482C30.882 8.50185 29.3924 10.636 27.8892 12.4331C27.5886 12.8841 27.2924 13.3283 27.0658 13.7793C26.8392 14.2302 26.6911 14.6744 26.0898 16.0296" stroke="black" stroke-width="10" stroke-linecap="round"/>
<path d="M42.2656 31.988C42.2656 31.8133 42.2656 31.6386 42.5277 31.4612C44.9686 29.8093 49.6678 30.5796 53.5462 30.4869C56.1017 30.4259 58.1395 31.808 60.7869 32.6896C63.8103 33.6964 65.5522 35.8638 68.1123 37.1902C70.3229 37.9871 72.7849 38.6913 75.6971 39.7502C76.8408 39.9303 78.5881 39.9303 80.3883 39.9303" stroke="black" stroke-width="10" stroke-linecap="round"/>
<path d="M43.8516 52.6374C44.3757 51.9331 46.4884 51.2289 52.5642 51.2236C55.7439 51.2209 57.6075 53.5163 59.7281 54.2231C61.9067 54.9494 64.3107 56.1637 66.6113 56.8706C68.7319 57.5774 71.194 58.2816 74.4609 58.1122C75.2604 57.7627 75.9593 57.0638 77.2089 55.8142" stroke="black" stroke-width="10" stroke-linecap="round"/>
<path d="M38.0312 73.8166C38.0312 73.4671 38.0312 73.1177 38.2933 72.7629C40.2262 70.1468 45.9629 72.0481 48.0835 73.1945C50.1354 74.3037 52.3167 75.225 54.8767 76.0192C57.6115 76.9935 60.7884 77.3429 70.3799 77.4356C72.4423 77.3482 72.9664 77.1735 74.5655 76.464" stroke="black" stroke-width="10" stroke-linecap="round"/>
<path d="M130.832 339.683C134.804 334.22 144.219 318.648 152.672 290.095C159.19 268.08 159.03 251.955 159.484 243.407C159.915 235.303 159.69 228.529 160.251 221.601C160.924 213.304 158.638 199.183 152.482 176.012C148.788 162.107 140.518 146.851 136.092 137.688C128.748 122.483 125.057 116.885 120.897 109.595C119.221 107.253 117.291 104.483 115.721 102.38C111.14 96.2432 100.041 91.4676 98.7322 90.1177" stroke="black" stroke-width="9" stroke-linecap="round"/>
<path d="M130.42 342.305C137.46 339.443 144.959 335.989 151.446 333.549C158.259 331.994 163.635 330.846 166.07 330.568C167.314 330.571 168.578 330.868 169.879 331.173" stroke="black" stroke-width="9" stroke-linecap="round"/>
<path d="M129.567 341.426C127.648 337.923 125.078 333.26 122.683 327.987C121.292 324.784 119.644 321.545 117.127 318.187C115.527 316.279 113.273 313.955 110.951 311.56" stroke="black" stroke-width="9" stroke-linecap="round"/>
<path d="M5.89844 108.016C5.89844 106.827 6.19459 104.436 6.86766 102.638C7.6107 100.655 8.88688 99.051 10.0064 97.3279C11.3365 95.2809 13.9663 93.9626 15.7634 92.4661C17.3078 91.1801 19.6471 90.669 21.9692 90.07C24.3963 89.4438 27.4278 89.3228 33.3957 89.3184C36.5375 89.316 38.1969 90.8126 39.994 91.8581C41.7931 92.9047 43.5815 93.801 45.3786 94.9991C47.1757 96.1972 49.2623 97.0946 51.5844 98.4385C53.3831 99.4795 55.2481 100.532 57.1193 102.102C59.1466 103.804 61.5301 104.274 63.3272 105.246C65.4762 106.407 69.1493 107.119 71.7765 107.565C76.2732 108.33 83.5172 107.424 85.3143 106.672C87.1098 105.921 88.9017 104.732 90.3264 103.161C91.8992 101.739 92.7966 99.9484 93.3216 97.7811C93.3979 96.96 93.3979 95.7754 93.3979 94.5549" stroke="black" stroke-width="10" stroke-linecap="round"/>
<path d="M91.6022 97.247C91.6022 95.7617 91.8984 92.7688 92.4234 90.7496C93.1644 87.8996 93.3971 86.0381 94.142 83.8685C94.7675 82.0466 95.192 79.6125 96.3093 76.393C97.0805 74.1705 97.283 71.3831 97.5096 69.061C97.8946 65.1155 98.1804 58.819 98.407 53.4434C98.5346 50.4165 99.0778 48.346 99.3044 45.656C99.5474 42.7715 100.128 40.7179 100.5 38.5483C100.848 36.5225 101.474 33.5474 101.92 31.2926C102.478 28.478 102.964 23.9718 103.417 19.635C103.738 16.5642 104.759 13.3463 105.212 9.31455C105.483 6.90291 106.558 5.71361 106.708 5.26265C107.172 3.87241 104.92 8.39244 103.648 10.1155C102.376 11.8382 100.137 12.5834 98.3397 13.7075C96.712 14.7255 94.7522 14.6834 92.9551 15.1299C90.9798 15.6206 88.9189 16.3257 86.7494 16.5523C80.7509 17.1788 70.5216 16.3347 68.7245 15.2107C66.9925 14.1274 65.137 12.745 63.3399 12.2918C61.3239 11.7834 59.7524 10.0527 57.9553 8.55622C56.4584 7.30973 52.591 6.31937 47.6439 5.63508C42.4634 4.91852 34.6244 5.85271 32.8273 7.12482C30.882 8.50185 29.3924 10.636 27.8892 12.4331C27.5886 12.8841 27.2924 13.3283 27.0658 13.7793C26.8392 14.2302 26.6911 14.6744 26.0898 16.0296" stroke="black" stroke-width="10" stroke-linecap="round"/>
<path d="M42.2656 31.988C42.2656 31.8133 42.2656 31.6386 42.5277 31.4612C44.9686 29.8093 49.6678 30.5796 53.5462 30.4869C56.1017 30.4259 58.1395 31.808 60.7869 32.6896C63.8103 33.6964 65.5522 35.8638 68.1123 37.1902C70.3229 37.9871 72.7849 38.6913 75.6971 39.7502C76.8408 39.9303 78.5881 39.9303 80.3883 39.9303" stroke="black" stroke-width="10" stroke-linecap="round"/>
<path d="M43.8516 52.6374C44.3757 51.9331 46.4884 51.2289 52.5642 51.2236C55.7439 51.2209 57.6075 53.5163 59.7281 54.2231C61.9067 54.9494 64.3107 56.1637 66.6113 56.8706C68.7319 57.5774 71.194 58.2816 74.4609 58.1122C75.2604 57.7627 75.9593 57.0638 77.2089 55.8142" stroke="black" stroke-width="10" stroke-linecap="round"/>
<path d="M38.0312 73.8166C38.0312 73.4671 38.0312 73.1177 38.2933 72.7629C40.2262 70.1468 45.9629 72.0481 48.0835 73.1945C50.1354 74.3037 52.3167 75.225 54.8767 76.0192C57.6115 76.9935 60.7884 77.3429 70.3799 77.4356C72.4423 77.3482 72.9664 77.1735 74.5655 76.464" stroke="black" stroke-width="10" stroke-linecap="round"/>
</svg>
