<svg width="113" height="114" viewBox="0 0 113 114" fill="none" xmlns="http://www.w3.org/2000/svg">
<path d="M5.89844 108.016C5.89844 106.827 6.19459 104.436 6.86766 102.638C7.6107 100.655 8.88688 99.051 10.0064 97.3279C11.3365 95.2809 13.9663 93.9626 15.7634 92.4661C17.3078 91.1801 19.6471 90.669 21.9692 90.07C24.3963 89.4438 27.4278 89.3228 33.3957 89.3184C36.5375 89.316 38.1969 90.8126 39.994 91.8581C41.7931 92.9047 43.5815 93.801 45.3786 94.9991C47.1757 96.1972 49.2623 97.0946 51.5844 98.4385C53.3831 99.4795 55.2481 100.532 57.1193 102.102C59.1466 103.804 61.5301 104.274 63.3272 105.246C65.4762 106.407 69.1493 107.119 71.7765 107.565C76.2732 108.33 83.5172 107.424 85.3143 106.672C87.1098 105.921 88.9017 104.732 90.3264 103.161C91.8992 101.739 92.7966 99.9484 93.3216 97.7811C93.3979 96.96 93.3979 95.7754 93.3979 94.5549" stroke="black" stroke-width="10" stroke-linecap="round"/>
<path d="M5 105.773C5.14808 104.88 6.04102 103.089 7.16505 101.218C8.48263 99.025 8.73331 96.0626 9.48491 94.0389C10.2845 91.8859 11.1294 90.0767 12.1009 87.9072C12.9929 85.915 14.1179 83.7947 14.5711 81.6252C15.091 79.1364 17.1063 75.4306 18.3829 72.5768C19.3995 70.3043 19.9512 68.0897 20.7028 65.8461C21.4418 63.6401 21.8986 61.8077 22.4236 60.0106C22.9727 58.131 23.2448 55.6782 23.4714 53.6545C23.7199 51.4346 24.2947 49.1001 24.7412 46.6254C25.0833 44.7291 25.4883 42.6655 25.7149 38.4072C25.8717 35.4618 26.3858 33.0899 26.6124 29.8031C26.7592 27.6728 27.2832 25.9105 27.5098 18.8993C27.5838 17.3804 27.7319 16.9362 27.8082 16.4852C27.8845 16.0342 27.8845 15.59 27.8845 15.1323" stroke="black" stroke-width="10" stroke-linecap="round"/>
<path d="M91.6022 97.2472C91.6022 95.762 91.8984 92.7691 92.4234 90.7498C93.1644 87.8998 93.3971 86.0383 94.142 83.8688C94.7675 82.0468 95.192 79.6127 96.3093 76.3932C97.0805 74.1707 97.283 71.3833 97.5096 69.0612C97.8946 65.1157 98.1804 58.8193 98.407 53.4437C98.5346 50.4167 99.0778 48.3463 99.3044 45.6562C99.5474 42.7717 100.128 40.7181 100.5 38.5486C100.848 36.5227 101.474 33.5476 101.92 31.2929C102.478 28.4782 102.964 23.9721 103.417 19.6352C103.738 16.5645 104.759 13.3465 105.212 9.31479C105.483 6.90316 106.558 5.71385 106.708 5.26289C107.172 3.87265 104.92 8.39268 103.648 10.1157C102.376 11.8384 100.137 12.5837 98.3397 13.7077C96.712 14.7258 94.7522 14.6837 92.9551 15.1301C90.9798 15.6209 88.9189 16.326 86.7494 16.5526C80.7509 17.1791 70.5216 16.3349 68.7245 15.2109C66.9925 14.1276 65.137 12.7452 63.3399 12.292C61.3239 11.7836 59.7524 10.0529 57.9553 8.55646C56.4584 7.30997 52.591 6.31962 47.6439 5.63533C42.4634 4.91876 34.6244 5.85295 32.8273 7.12506C30.882 8.50209 29.3924 10.6363 27.8892 12.4334C27.5886 12.8843 27.2924 13.3285 27.0658 13.7795C26.8392 14.2305 26.6911 14.6747 26.0898 16.0298" stroke="black" stroke-width="10" stroke-linecap="round"/>
<path d="M30.9263 13.4367C31.5326 10.3673 34.3957 8.27899 37.5036 8.63932L94.95 15.2998C98.2766 15.6855 100.643 18.7196 100.208 22.04L89.878 100.807C89.4107 104.369 85.9381 106.725 82.455 105.843L21.5148 90.3988C18.4228 89.6152 16.4843 86.5493 17.1025 83.4199L30.9263 13.4367Z" fill="white"/>
<path d="M6.89844 108.016C6.89844 106.827 7.19459 104.436 7.86766 102.638C8.6107 100.655 9.88688 99.051 11.0064 97.3279C12.3365 95.2809 14.9663 93.9626 16.7634 92.4661C18.3078 91.1801 20.6471 90.669 22.9692 90.07C25.3963 89.4438 28.4278 89.3228 34.3957 89.3184C37.5375 89.316 39.1969 90.8126 40.994 91.8581C42.7931 92.9047 44.5815 93.801 46.3786 94.9991C48.1757 96.1972 50.2623 97.0946 52.5844 98.4385C54.3831 99.4795 56.2481 100.532 58.1193 102.102C60.1466 103.804 62.5301 104.274 64.3272 105.246C66.4762 106.407 70.1493 107.119 72.7765 107.565C77.2732 108.33 84.5172 107.424 86.3143 106.672C88.1098 105.921 89.9017 104.732 91.3264 103.161C92.8992 101.739 93.7966 99.9484 94.3216 97.7811C94.3979 96.96 94.3979 95.7754 94.3979 94.5549" stroke="white" stroke-width="10" stroke-linecap="round"/>
<path d="M6 105.773C6.14808 104.88 7.04102 103.089 8.16505 101.218C9.48263 99.025 9.73331 96.0626 10.4849 94.0389C11.2845 91.8859 12.1294 90.0767 13.1009 87.9072C13.9929 85.915 15.1179 83.7947 15.5711 81.6252C16.091 79.1364 18.1063 75.4306 19.3829 72.5768C20.3995 70.3043 20.9512 68.0897 21.7028 65.8461C22.4418 63.6401 22.8986 61.8077 23.4236 60.0106C23.9727 58.131 24.2448 55.6782 24.4714 53.6545C24.7199 51.4346 25.2947 49.1001 25.7412 46.6254C26.0833 44.7291 26.4883 42.6655 26.7149 38.4072C26.8717 35.4618 27.3858 33.0899 27.6124 29.8031C27.7592 27.6728 28.2832 25.9105 28.5098 18.8993C28.5838 17.3804 28.7319 16.9362 28.8082 16.4852C28.8845 16.0342 28.8845 15.59 28.8845 15.1323" stroke="white" stroke-width="10" stroke-linecap="round"/>
<path d="M92.6022 97.2472C92.6022 95.762 92.8984 92.7691 93.4234 90.7498C94.1644 87.8998 94.3971 86.0383 95.142 83.8688C95.7675 82.0468 96.192 79.6127 97.3093 76.3932C98.0805 74.1707 98.283 71.3833 98.5096 69.0612C98.8946 65.1157 99.1804 58.8193 99.407 53.4437C99.5346 50.4167 100.078 48.3463 100.304 45.6562C100.547 42.7717 101.128 40.7181 101.5 38.5486C101.848 36.5227 102.474 33.5476 102.92 31.2929C103.478 28.4782 103.964 23.9721 104.417 19.6352C104.738 16.5645 105.759 13.3465 106.212 9.31479C106.483 6.90316 107.558 5.71385 107.708 5.26289C108.172 3.87265 105.92 8.39268 104.648 10.1157C103.376 11.8384 101.137 12.5837 99.3397 13.7077C97.712 14.7258 95.7522 14.6837 93.9551 15.1301C91.9798 15.6209 89.9189 16.326 87.7494 16.5526C81.7509 17.1791 71.5216 16.3349 69.7245 15.2109C67.9925 14.1276 66.137 12.7452 64.3399 12.292C62.3239 11.7836 60.7524 10.0529 58.9553 8.55646C57.4584 7.30997 53.591 6.31962 48.6439 5.63533C43.4634 4.91876 35.6244 5.85295 33.8273 7.12506C31.882 8.50209 30.3924 10.6363 28.8892 12.4334C28.5886 12.8843 28.2924 13.3285 28.0658 13.7795C27.8392 14.2305 27.6911 14.6747 27.0898 16.0298" stroke="white" stroke-width="10" stroke-linecap="round"/>
<path d="M45.9097 30.1299C46.0617 30.0067 46.2137 29.8835 46.628 30.0794C50.4861 31.9033 54.4769 38.1991 58.4045 42.882C60.9923 45.9674 61.8112 49.4363 63.6701 53.2987C65.7932 57.7097 65.6354 61.3698 67.0208 65.4387C68.5202 68.7066 70.3497 72.2172 72.3169 76.5287C73.2947 78.0557 75.0278 80.1948 76.8134 82.3987" stroke="black" stroke-width="10" stroke-linecap="round"/>
<path d="M81.3359 35.0928C81.4947 35.2425 81.6534 35.3921 81.5506 35.8241C80.5929 39.8479 75.1593 44.2113 71.3367 48.4364C68.818 51.2203 65.5093 52.215 62.0413 54.2899C58.0808 56.6596 54.3566 56.6654 50.5725 58.2661C47.6216 59.9466 44.5015 61.9754 40.6057 64.1814C39.2901 65.2498 37.53 67.1175 35.7166 69.0418" stroke="black" stroke-width="10" stroke-linecap="round"/>
</svg>
