<svg width="78" height="73" viewBox="0 0 78 73" fill="none" xmlns="http://www.w3.org/2000/svg">
<path d="M3.94141 62.694C5.14023 62.694 7.23153 62.8532 13.5247 62.8954C15.8659 62.9111 16.962 61.8932 18.1681 61.2492C19.376 60.6041 20.4982 59.8043 21.9069 58.6381C22.8742 57.8372 23.7159 56.7506 24.6422 55.7025C25.4265 54.8151 26.1281 53.9332 26.8939 52.849C27.8904 51.4382 28.8634 49.6734 29.7872 48.5482C31.0808 46.9726 31.2755 45.6548 32.2802 44.0062C32.9848 42.8499 33.4464 41.1538 33.6901 39.6233C34.013 37.5945 35.0577 34.8003 35.2579 33.552C35.4311 32.4725 35.6993 30.8637 35.7018 22.8048C35.7025 20.2117 34.9805 19.2807 34.3365 18.0747C33.6581 16.8044 33.21 15.6626 32.4478 14.8967C31.6437 14.0888 30.8799 13.2505 29.9959 12.5244C29.0132 11.7173 27.8262 10.9975 26.8203 10.3137C25.6283 9.50328 24.6904 8.82663 23.7244 8.54321C22.5887 8.21 21.7959 7.53856 20.8298 7.05614C19.8638 6.81492 18.9014 6.4917 17.9353 6.2517C17.6929 6.17089 17.4541 6.09129 16.7256 6.00928" stroke="black" stroke-width="4" stroke-linecap="round"/>
<path d="M13.8311 5.28559C16.5592 4.16154 20.3969 3.04232 22.7113 2.59246C23.8889 2.36357 28.1084 2.14983 34.0109 2.34883C39.9105 2.54774 41.2424 3.99752 43.3711 5.16016C45.2831 6.20445 47.2727 7.21046 48.7212 8.09691C49.7699 8.7387 50.8909 9.70459 51.7785 10.5886C52.8675 11.6732 54.345 13.2359 55.2773 14.448C55.9899 15.3745 56.762 16.7769 57.488 18.6258C58.1591 20.3347 59.0149 22.566 59.6191 24.7345C60.3025 27.1869 60.6262 29.6431 60.8264 30.8492C60.9317 31.4835 60.947 32.0577 61.0676 34.0115C61.5863 42.4139 60.8674 43.5514 60.227 45.6801C59.7454 47.2809 59.1789 48.2165 58.6989 49.3019C58.0125 50.8541 57.4132 51.9938 56.569 52.8417C55.711 53.7033 54.7647 55.6072 53.6346 56.7409C52.4702 57.9091 50.9053 59.3894 49.8151 60.3193C48.9916 61.0215 47.9288 61.5651 46.4803 62.5698C45.4862 63.2592 44.4698 63.6588 43.3036 64.1388C42.1354 64.6196 40.456 65.4245 38.9219 66.2289C37.0577 67.2065 33.2245 67.9958 31.6844 68.2816C30.4478 68.5111 29.0323 68.9655 27.187 69.3659C25.7774 69.6718 24.688 69.6071 22.4158 69.8483C16.5937 70.4664 12.3862 69.8507 11.8254 69.6505C10.4702 69.1667 8.85731 68.7291 7.3232 68.2033C5.87593 67.5206 4.42866 66.5582 3.42281 65.7525C3.14059 65.5113 2.82219 65.1929 2.01172 64.3825" stroke="black" stroke-width="4" stroke-linecap="round"/>
<path d="M41.0859 29.8894C41.0859 29.9666 41.2451 31.0906 41.5274 32.1761C41.5684 32.5379 41.5684 33.0155 41.6082 33.3809C41.648 33.7464 41.7276 33.9852 42.0508 34.2312" stroke="black" stroke-width="4" stroke-linecap="round"/>
<path d="M50.7344 30.3718V34.4724" stroke="black" stroke-width="4" stroke-linecap="round"/>
<path d="M42.7734 45.8093C42.7734 45.6501 43.0122 45.4089 43.4935 45.1279C43.9747 44.9265 44.9371 44.8445 46.142 44.8843C46.6304 44.9241 46.8692 45.0037 47.3565 45.5681" stroke="black" stroke-width="4" stroke-linecap="round"/>
<path d="M8.77311 43.5197C9.32862 42.6183 10.1692 40.6604 10.6231 39.715C11.1207 38.6783 11.5653 37.6544 12.0904 36.6063C12.5816 35.6258 12.6847 34.5813 12.7906 33.2879C12.8397 32.6877 12.9656 31.9945 12.9656 31.919C12.9656 29.1239 13.3136 35.8265 13.5589 36.8086C13.7805 37.6961 13.9425 38.8325 14.0483 39.7779C14.1705 40.8689 14.5001 41.8385 14.8512 42.8521C15.152 43.7203 15.4099 44.3561 15.5503 44.5668C15.9999 45.2412 14.2988 42.7567 13.6312 41.8459C12.7289 40.615 11.0832 39.0505 10.2436 38.4908C9.43459 37.9514 8.56768 37.5831 7.72812 37.058C6.96774 36.5824 6.05217 36.4637 5.52391 36.2185C4.41692 35.7045 7.85914 36.5308 9.46592 36.6367C10.5975 36.7112 11.7037 36.9501 15.501 37.0559C16.3175 37.0905 16.5251 37.1597 16.8049 37.1953C17.0848 37.231 17.4307 37.231 17.787 37.231" stroke="black" stroke-width="4" stroke-linecap="round"/>
<path d="M63.0664 62.5959C63.4836 62.3884 64.8734 60.9985 66.172 60.0133C67.1777 59.2503 67.8836 58.2692 68.6886 57.5324C69.4265 56.8569 69.8415 55.7537 70.5406 54.6689C71.1006 53.8 71.6569 52.886 71.9399 52.1177C72.1012 51.6796 72.4283 51.2782 72.6033 51.1021C73.2547 50.4468 71.7323 53.0873 71.4525 53.9981C71.1926 54.844 71.0322 56.0891 70.8236 57.3165C70.5931 58.6727 70.7513 60.6338 70.8917 61.5446C71.0443 62.5337 71.7281 63.4302 72.2533 63.993C72.3384 64.0843 72.4283 63.5811 72.3602 63.2646C72.0835 61.9794 71.4514 61.1327 70.9997 60.0846C70.5076 58.9427 69.917 58.1979 69.3573 57.3584C68.8056 56.5309 67.892 55.892 67.2264 55.0871C66.9109 54.7054 66.4225 54.4226 66.2118 54.1081C65.8629 53.5873 67.8123 54.3492 68.7577 54.7685C69.7668 55.2159 70.9567 55.5357 72.0415 55.7474C72.9667 55.928 73.7531 56.2358 74.5927 56.5157C74.8034 56.5859 75.0109 56.6551 75.2216 56.6907C75.4322 56.7264 75.6398 56.7264 75.8536 56.7264" stroke="black" stroke-width="4" stroke-linecap="round"/>
<path d="M14.5 3.72998L31.5 2.22998L48 7.22998L54.5 15.23L59 24.73L59.5 37.73V46.23L55.5 52.73L46 62.73L40.5 63.73L29.5 67.73L19 68.73H11L7 67.23L4.5 63.73L18 60.73L30.5 49.73L36.5 32.73L36 24.23L34 14.73L14.5 3.72998Z" fill="#99A9C0"/>
<path d="M13.8194 5.01557C16.5475 3.89152 20.3852 2.7723 22.6996 2.32244C23.8772 2.09355 28.0967 1.87982 33.9991 2.07882C39.8988 2.27772 41.2307 3.7275 43.3594 4.89014C45.2714 5.93443 47.261 6.94044 48.7094 7.82689C49.7581 8.46868 50.8791 9.43457 51.7668 10.3186C52.8558 11.4032 54.3333 12.9659 55.2656 14.178C55.9782 15.1045 56.7502 16.5069 57.4763 18.3558C58.1473 20.0646 59.0032 22.296 59.6074 24.4645C60.2907 26.9169 60.6145 29.3731 60.8147 30.5792C60.9199 31.2134 60.9353 31.7877 61.0559 33.7415C61.5745 42.1439 60.8557 43.2814 60.2152 45.4101C59.7337 47.0109 59.1672 47.9464 58.6872 49.0319C58.0007 50.5841 57.4015 51.7238 56.5573 52.5717C55.6993 53.4333 54.753 55.3372 53.6229 56.4709C52.4584 57.6391 50.8936 59.1194 49.8033 60.0492C48.9799 60.7515 47.9171 61.2951 46.4686 62.2997C45.4745 62.9892 44.4581 63.3888 43.2918 63.8688C42.1237 64.3496 40.4443 65.1545 38.9102 65.9589C37.046 66.9365 33.2128 67.7258 31.6727 68.0116C30.4361 68.2411 29.0205 68.6955 27.1753 69.0959C25.7657 69.4017 24.6763 69.3371 22.4041 69.5783C16.582 70.1964 12.3745 69.5807 11.8137 69.3805C10.4584 68.8967 8.84559 68.4591 7.31148 67.9332C5.86421 67.2506 4.41694 66.2882 3.41109 65.4825C3.12887 65.2413 2.81047 64.9229 2 64.1124" stroke="black" stroke-width="4" stroke-linecap="round"/>
<path d="M41.0742 29.6196C41.0742 29.6968 41.2334 30.8209 41.5156 31.9063C41.5566 32.2681 41.5566 32.7457 41.5964 33.1112C41.6362 33.4766 41.7158 33.7154 42.0391 33.9614" stroke="black" stroke-width="4" stroke-linecap="round"/>
<path d="M50.7227 30.1021V34.2027" stroke="black" stroke-width="4" stroke-linecap="round"/>
<path d="M42.7617 45.5393C42.7617 45.3801 43.0005 45.1389 43.4817 44.8579C43.963 44.6565 44.9254 44.5745 46.1302 44.6143C46.6187 44.6541 46.8575 44.7337 47.3447 45.2981" stroke="black" stroke-width="4" stroke-linecap="round"/>
<path d="M8.76139 43.2497C9.3169 42.3483 10.1575 40.3904 10.6113 39.445C11.109 38.4083 11.5536 37.3844 12.0787 36.3363C12.5699 35.3558 12.673 34.3113 12.7789 33.0179C12.828 32.4176 12.9539 31.7245 12.9539 31.649C12.9539 28.8539 13.3019 35.5564 13.5471 36.5385C13.7688 37.426 13.9308 38.5625 14.0366 39.5079C14.1588 40.5989 14.4884 41.5685 14.8395 42.5821C15.1403 43.4503 15.3981 44.0861 15.5386 44.2968C15.9882 44.9712 14.2871 42.4867 13.6195 41.5758C12.7172 40.345 11.0715 38.7805 10.2319 38.2208C9.42287 37.6814 8.55596 37.3131 7.71641 36.788C6.95602 36.3124 6.04045 36.1937 5.51219 35.9484C4.4052 35.4345 7.84742 36.2608 9.4542 36.3666C10.5858 36.4412 11.692 36.68 15.4893 36.7859C16.3058 36.8205 16.5134 36.8897 16.7932 36.9253C17.0731 36.9609 17.4189 36.9609 17.7753 36.9609" stroke="#FFEA00" stroke-width="4" stroke-linecap="round"/>
<path d="M63.0547 62.3261C63.4718 62.1186 64.8617 60.7288 66.1603 59.7435C67.166 58.9805 67.8719 57.9994 68.6769 57.2626C69.4147 56.5872 69.8298 55.4839 70.5289 54.3991C71.0888 53.5302 71.6452 52.6162 71.9281 51.848C72.0895 51.4099 72.4166 51.0084 72.5916 50.8323C73.243 50.177 71.7206 52.8175 71.4408 53.7283C71.1809 54.5742 71.0205 55.8193 70.8119 57.0467C70.5814 58.4029 70.7396 60.364 70.88 61.2748C71.0325 62.2639 71.7164 63.1604 72.2415 63.7233C72.3266 63.8145 72.4166 63.3113 72.3484 62.9948C72.0718 61.7096 71.4397 60.8629 70.988 59.8148C70.4958 58.673 69.9053 57.9282 69.3456 57.0886C68.7939 56.2612 67.8803 55.6223 67.2147 54.8173C66.8992 54.4357 66.4108 54.1528 66.2001 53.8384C65.8512 53.3176 67.8006 54.0794 68.746 54.4987C69.7551 54.9462 70.945 55.2659 72.0298 55.4776C72.955 55.6582 73.7414 55.9661 74.581 56.2459C74.7916 56.3161 74.9992 56.3853 75.2098 56.4209C75.4205 56.4566 75.628 56.4566 75.8419 56.4566" stroke="#FFEA00" stroke-width="4" stroke-linecap="round"/>
<path d="M3.92969 62.424C5.12851 62.424 7.21982 62.5832 13.513 62.6254C15.8541 62.6411 16.9503 61.6232 18.1564 60.9792C19.3643 60.3341 20.4865 59.5343 21.8951 58.368C22.8624 57.5672 23.7042 56.4806 24.6305 55.4325C25.4147 54.5451 26.1163 53.6632 26.8822 52.579C27.8787 51.1681 28.8517 49.4034 29.7755 48.2782C31.0691 46.7026 31.2638 45.3848 32.2684 43.7361C32.973 42.5799 33.4347 40.8838 33.6783 39.3533C34.0013 37.3244 35.046 34.5303 35.2462 33.282C35.4193 32.2025 35.6876 30.5937 35.69 22.5348C35.6908 19.9417 34.9688 19.0107 34.3248 17.8047C33.6464 16.5343 33.1983 15.3926 32.4361 14.6267C31.6319 13.8187 30.8682 12.9804 29.9842 12.2544C29.0015 11.4473 27.8145 10.7275 26.8086 10.0437C25.6166 9.23326 24.6787 8.55661 23.7127 8.27319C22.5769 7.93999 21.7842 7.26854 20.8181 6.78612C19.8521 6.5449 18.8896 6.22168 17.9236 5.98168C17.6812 5.90087 17.4424 5.82127 16.7139 5.73926" stroke="black" stroke-width="4" stroke-linecap="round"/>
</svg>
