<svg width="78" height="72" viewBox="0 0 78 72" fill="none" xmlns="http://www.w3.org/2000/svg">
<path d="M3.92969 62.424C5.12851 62.424 7.21982 62.5832 13.513 62.6254C15.8541 62.6411 16.9503 61.6232 18.1564 60.9792C19.3643 60.3341 20.4865 59.5343 21.8951 58.368C22.8624 57.5672 23.7042 56.4806 24.6305 55.4325C25.4147 54.5451 26.1163 53.6632 26.8822 52.579C27.8787 51.1681 28.8517 49.4034 29.7755 48.2782C31.0691 46.7026 31.2638 45.3848 32.2684 43.7361C32.973 42.5799 33.4347 40.8838 33.6783 39.3533C34.0013 37.3244 35.046 34.5303 35.2462 33.282C35.4193 32.2025 35.6876 30.5937 35.69 22.5348C35.6908 19.9417 34.9688 19.0107 34.3248 17.8047C33.6464 16.5343 33.1983 15.3926 32.4361 14.6267C31.6319 13.8187 30.8682 12.9804 29.9842 12.2544C29.0015 11.4473 27.8145 10.7275 26.8086 10.0437C25.6166 9.23326 24.6787 8.55661 23.7127 8.27319C22.5769 7.93999 21.7842 7.26854 20.8181 6.78612C19.8521 6.5449 18.8896 6.22168 17.9236 5.98168C17.6812 5.90087 17.4424 5.82127 16.7139 5.73926" stroke="black" stroke-width="4" stroke-linecap="round"/>
<path d="M13.8194 5.01557C16.5475 3.89152 20.3852 2.7723 22.6996 2.32244C23.8772 2.09355 28.0967 1.87982 33.9991 2.07882C39.8988 2.27772 41.2307 3.7275 43.3594 4.89014C45.2714 5.93443 47.261 6.94044 48.7094 7.82689C49.7581 8.46868 50.8791 9.43457 51.7668 10.3186C52.8558 11.4032 54.3333 12.9659 55.2656 14.178C55.9782 15.1045 56.7502 16.5069 57.4763 18.3558C58.1473 20.0646 59.0032 22.296 59.6074 24.4645C60.2907 26.9169 60.6145 29.3731 60.8147 30.5792C60.9199 31.2134 60.9353 31.7877 61.0559 33.7415C61.5745 42.1439 60.8557 43.2814 60.2152 45.4101C59.7337 47.0109 59.1672 47.9464 58.6872 49.0319C58.0007 50.5841 57.4015 51.7238 56.5573 52.5717C55.6993 53.4333 54.753 55.3372 53.6229 56.4709C52.4584 57.6391 50.8936 59.1194 49.8033 60.0492C48.9799 60.7515 47.9171 61.2951 46.4686 62.2997C45.4745 62.9892 44.4581 63.3888 43.2918 63.8688C42.1237 64.3496 40.4443 65.1545 38.9102 65.9589C37.046 66.9365 33.2128 67.7258 31.6727 68.0116C30.4361 68.2411 29.0205 68.6955 27.1753 69.0959C25.7657 69.4017 24.6763 69.3371 22.4041 69.5783C16.582 70.1964 12.3745 69.5807 11.8137 69.3805C10.4584 68.8967 8.84559 68.4591 7.31148 67.9332C5.86421 67.2506 4.41694 66.2882 3.41109 65.4825C3.12887 65.2413 2.81047 64.9229 2 64.1124" stroke="black" stroke-width="4" stroke-linecap="round"/>
<path d="M41.0742 29.6196C41.0742 29.6968 41.2334 30.8209 41.5156 31.9063C41.5566 32.2681 41.5566 32.7457 41.5964 33.1112C41.6362 33.4766 41.7158 33.7154 42.0391 33.9614" stroke="black" stroke-width="4" stroke-linecap="round"/>
<path d="M50.7227 30.1021V34.2027" stroke="black" stroke-width="4" stroke-linecap="round"/>
<path d="M42.7617 45.5393C42.7617 45.3801 43.0005 45.1389 43.4817 44.8579C43.963 44.6565 44.9254 44.5745 46.1302 44.6143C46.6187 44.6541 46.8575 44.7337 47.3447 45.2981" stroke="black" stroke-width="4" stroke-linecap="round"/>
<path d="M8.76139 43.2497C9.3169 42.3483 10.1575 40.3904 10.6113 39.445C11.109 38.4083 11.5536 37.3844 12.0787 36.3363C12.5699 35.3558 12.673 34.3113 12.7789 33.0179C12.828 32.4176 12.9539 31.7245 12.9539 31.649C12.9539 28.8539 13.3019 35.5564 13.5471 36.5385C13.7688 37.426 13.9308 38.5625 14.0366 39.5079C14.1588 40.5989 14.4884 41.5685 14.8395 42.5821C15.1403 43.4503 15.3981 44.0861 15.5386 44.2968C15.9882 44.9712 14.2871 42.4867 13.6195 41.5758C12.7172 40.345 11.0715 38.7805 10.2319 38.2208C9.42287 37.6814 8.55596 37.3131 7.71641 36.788C6.95602 36.3124 6.04045 36.1937 5.51219 35.9484C4.4052 35.4345 7.84742 36.2608 9.4542 36.3666C10.5858 36.4412 11.692 36.68 15.4893 36.7859C16.3058 36.8205 16.5134 36.8897 16.7932 36.9253C17.0731 36.9609 17.4189 36.9609 17.7753 36.9609" stroke="black" stroke-width="4" stroke-linecap="round"/>
<path d="M63.0547 62.3261C63.4718 62.1186 64.8617 60.7288 66.1603 59.7435C67.166 58.9805 67.8719 57.9994 68.6769 57.2626C69.4147 56.5872 69.8298 55.4839 70.5289 54.3991C71.0888 53.5302 71.6452 52.6162 71.9281 51.848C72.0895 51.4099 72.4166 51.0084 72.5916 50.8323C73.243 50.177 71.7206 52.8175 71.4408 53.7283C71.1809 54.5742 71.0205 55.8193 70.8119 57.0467C70.5814 58.4029 70.7396 60.364 70.88 61.2748C71.0325 62.2639 71.7164 63.1604 72.2415 63.7233C72.3266 63.8145 72.4166 63.3113 72.3484 62.9948C72.0718 61.7096 71.4397 60.8629 70.988 59.8148C70.4958 58.673 69.9053 57.9282 69.3456 57.0886C68.7939 56.2612 67.8803 55.6223 67.2147 54.8173C66.8992 54.4357 66.4108 54.1528 66.2001 53.8384C65.8512 53.3176 67.8006 54.0794 68.746 54.4987C69.7551 54.9462 70.945 55.2659 72.0298 55.4776C72.955 55.6582 73.7414 55.9661 74.581 56.2459C74.7916 56.3161 74.9992 56.3853 75.2098 56.4209C75.4205 56.4566 75.628 56.4566 75.8419 56.4566" stroke="black" stroke-width="4" stroke-linecap="round"/>
</svg>
