<svg width="95" height="89" viewBox="0 0 95 89" fill="none" xmlns="http://www.w3.org/2000/svg">
<path d="M63.0166 9.4043L63.0264 9.40625L78.9531 13.0469L90.2627 31.1426L88.915 38.7891L88.8975 38.8838L88.918 38.9785L90.7363 47.6172L88.4629 56.2617L88.4326 56.376L88.457 56.4912L90.2793 65.1475L89.415 69.4678L85.9248 72.085L77.6826 75.749L77.5664 75.8008L77.4893 75.9014L72.9805 81.7598L64.9111 84.002H55.709L55.6553 84.0137L51.6963 84.8926L48.6377 83.1455L48.5225 83.0801H32.3311L24.6562 80.8223L18.293 75.8213L11.9326 69.916L8.77148 63.1426L7.89062 58.7334L9.22363 55.1816L9.2998 54.9775L5.10059 46.5791L4.64941 38.4688L5.96582 33.6416L9.51562 30.9805L9.67969 30.8574L9.71094 30.6543L11.0703 21.5801L16.4648 15.2861L23.3193 10.7178L23.3262 10.7139L23.333 10.709L26.4971 8.44727L30.5244 7.10449L46.5127 5.27832L63.0166 9.4043Z" fill="#FFD901" stroke="#FFA719"/>
<path d="M78.0811 55.8312C78.0811 58.4381 77.7103 62.562 76.8675 64.8121C75.9372 67.2962 73.5976 68.9332 70.7884 70.8996C68.1377 72.7551 65.7319 73.2481 63.4818 73.8071C61.1799 74.379 57.1358 74.9336 51.8911 75.3999C39.1845 76.5297 36.5165 74.192 34.2663 73.1582C32.0162 72.1244 29.7745 71.3828 27.5243 69.8827C25.3559 68.4371 23.4033 67.0791 21.4368 65.7616C19.2727 64.3117 17.9759 61.09 16.7511 58.6488C15.6034 56.3614 15.1555 53.4153 14.6892 49.4853C13.6501 40.7282 15.5263 37.6839 16.2764 35.0517C16.9264 32.7707 18.8861 29.8182 21.3273 25.8798C23.6274 22.1688 28.6283 19.1321 30.9712 18.0983C33.6976 16.8953 36.303 16.1319 39.7667 15.4746C44.8442 14.511 53.1019 14.8172 58.8747 15.8426C61.5022 16.3092 64.0239 17.4354 66.8331 18.7444C69.7242 20.0917 72.2605 22.1098 74.328 24.36C76.5729 26.8032 78.2609 28.8519 79.2019 31.102C80.1171 33.2902 80.6992 35.5939 80.9829 39.243C81.4521 45.3024 81.0813 54.6963 79.7722 56.9464C79.3958 57.5111 79.025 58.0673 78.0811 59.2022" stroke="#FFA719" stroke-width="4" stroke-linecap="round"/>
<path d="M28.6191 36.0898C28.9319 36.3508 29.6629 36.7689 30.3459 36.9277C31.123 37.1083 32.5394 37.5548 33.881 37.9227C34.6426 38.028 35.2713 38.1852 36.7269 38.2638C37.975 38.2905 40.2574 38.2905 42.6089 38.2905" stroke="black" stroke-width="4" stroke-linecap="round"/>
<path d="M53.9258 38.7621C54.3942 38.7621 55.3373 38.8658 56.4879 39.0497C57.2614 39.1733 57.9058 39.1283 59.9838 39.2069C61.8532 39.2776 65.3817 39.2336 67.3025 39.2077C69.8067 39.1739 70.4274 38.8155 71.0829 38.5797C71.2668 38.5011 71.4743 38.3974 71.659 38.318C71.8437 38.2386 71.9993 38.1867 72.3168 38.1333" stroke="black" stroke-width="4" stroke-linecap="round"/>
<path d="M42.1348 58.4109C42.1348 58.8793 42.2385 59.8225 42.6307 60.4261C43.0394 61.0551 43.7569 61.3943 44.333 61.5806C45.0044 61.7977 45.9544 61.869 47.1585 61.9995C48.5027 62.1452 49.5729 61.8706 49.9651 61.583C50.6556 61.0765 51.1448 60.3003 51.5385 59.6708C51.6179 59.5128 51.6698 59.3572 51.6965 58.9917C51.7232 58.6263 51.7232 58.0557 51.7232 57.4678" stroke="black" stroke-width="4" stroke-linecap="round"/>
<path d="M33.333 39.7051C33.333 40.0163 33.333 40.9547 33.307 42.2114C33.2811 42.6901 33.2292 42.8457 33.2025 43.0815C33.1758 43.3173 33.1758 43.6285 33.1758 43.9492" stroke="black" stroke-width="4" stroke-linecap="round"/>
<path d="M63.9941 40.9058C64.1713 41.0816 64.3485 41.8782 64.5263 42.7674C64.6149 43.2103 64.7042 43.6126 64.7708 44.0329C64.7934 44.2773 64.7934 44.585 64.9266 44.9021" stroke="black" stroke-width="4" stroke-linecap="round"/>
<path d="M42.003 58.6602C42.003 58.6066 42.003 58.5531 41.9896 58.4853C41.9762 58.4176 41.9495 58.3372 41.9357 58.0549C41.9219 57.7725 41.9219 57.2905 41.9219 56.7939" stroke="black" stroke-width="4" stroke-linecap="round"/>
<path d="M30.5242 9.77698C30.5899 9.31529 30.9859 8.25659 31.3192 7.06158C31.568 6.16964 32.0486 5.27154 32.1819 4.2417C32.2427 3.77187 32.5142 3.01683 32.6456 2.384C32.9867 0.740535 34.6993 4.92925 35.4963 5.99193C35.8933 6.52128 36.2933 6.98894 36.7231 7.28745C36.9318 7.43232 37.2187 7.38894 37.551 7.19193C39.0465 6.30536 39.4754 5.20388 40.2724 4.37403C41.1468 3.46363 41.4017 2.61484 41.6336 2.48052C42.5302 1.96101 42.1977 4.53125 42.4634 5.56109C42.5241 5.79653 42.5957 5.99193 42.7281 6.12626C42.8604 6.26059 43.0574 6.32626 43.2574 6.32725C44.1595 6.33174 45.0475 5.66557 46.1748 5.06955C47.1465 4.55586 48.3629 3.67951 49.3927 2.98001C49.63 2.81884 49.8236 2.61683 49.925 2.97504C50.6953 5.69354 50.5559 7.25362 50.8534 7.7173C50.9942 7.93679 51.2166 8.04963 51.4494 8.08446C51.9404 8.1579 52.4783 7.85461 52.9091 7.5571C53.705 7.00751 54.0703 5.66955 54.7996 4.21085C54.9996 3.81085 55.1967 3.41683 55.331 3.31235C55.8893 2.87809 56.0603 4.99692 56.5917 6.02477C57.2343 7.26782 57.6524 8.37998 58.4145 8.78097C58.6289 8.89373 58.9101 8.91331 59.1767 8.84863C60.3761 8.55774 60.9678 7.4566 62.2931 6.26656C62.6449 5.95068 62.8901 5.66955 63.0583 5.63273C63.9665 5.43388 63.8891 7.91431 64.3856 8.91132C64.6051 9.35198 65.0831 9.57599 65.3807 9.973C67.4064 12.6763 74.108 10.7043 73.7766 11.0018C73.157 11.5582 73.1786 12.6247 73.0124 13.4197C72.9435 13.7497 73.0433 13.9521 73.2085 13.9551C74.3946 13.9765 75.296 12.8297 76.489 12.0357C77.6301 11.2762 78.9418 11.2377 79.8413 11.1362C81.0684 10.9977 80.1437 13.7531 79.8781 14.9461C79.7314 15.6048 79.6124 16.1431 79.5129 16.6386C79.4538 16.9332 79.4791 17.3312 79.9059 17.5341C82.0975 18.5763 83.3875 17.4068 84.4183 17.4376C85.1436 17.4593 83.2641 18.8595 82.5328 19.559C82.2332 19.8456 82.2651 20.5849 82.3636 21.3471C82.5144 22.5136 84.4502 22.6446 86.2382 23.6366C86.9018 24.0048 87.1725 24.5013 87.2074 24.8326C87.2565 25.2996 86.1815 25.3629 85.7835 25.958C85.3727 26.5721 85.8452 27.4843 86.2422 28.147C86.7741 29.0348 88.4223 30.0674 89.6253 31.0345C90.4894 31.7293 91.1526 32.6584 91.485 33.4554C91.5619 33.64 91.3556 33.8524 91.1566 33.9539C90.3031 34.3892 89.3019 34.5848 88.5357 35.146C86.9557 36.3033 88.8959 38.1629 89.7576 39.324C90.7847 40.7081 91.087 41.6156 91.0879 41.9797C91.089 42.3767 90.3606 42.4136 89.9626 42.6106C88.8336 43.1694 90.488 44.7976 91.3168 46.0902C91.9344 47.0533 92.3466 48.1807 92.6123 49.3409C92.7414 49.9048 92.8123 50.4374 92.7138 50.8682C92.5176 51.7262 90.6949 51.0384 89.6322 50.8384C89.3702 50.7891 89.1029 50.9031 88.9676 51.4623C88.2723 54.3354 89.0312 55.4762 89.6919 58.2234C90.094 59.8951 90.2909 60.9846 90.3576 61.2841C90.3656 61.32 90.2929 61.1239 90.1606 60.9896C90.0282 60.8552 89.8312 60.7896 89.6641 60.8871C89.26 61.1228 89.2302 61.9119 89.2959 62.6075C89.3883 63.5858 90.3526 64.8254 91.2173 66.091C91.945 67.1562 92.281 67.884 92.282 68.2154C92.2874 70.0135 87.7059 68.6801 87.5397 69.1099C87.1874 70.0212 88.0999 70.9984 88.3676 71.8631C88.4267 72.0542 88.3029 72.2601 88.1377 72.3945C86.8654 73.4291 84.4562 72.9248 84.1248 73.4542C83.4569 74.5213 83.4591 76.6959 83.295 78.4551C83.2451 78.9899 82.8024 78.7039 82.5676 78.4372C81.7631 77.5236 81.2064 76.6462 80.3447 75.684C79.9817 75.2786 79.6144 74.8531 79.085 74.489C78.5844 74.1445 78.0224 74.0551 77.5915 74.1865C76.4391 74.5378 76.892 76.7696 76.5617 78.1626C76.3141 79.2066 76.0323 80.284 75.6662 81.3815C75.3485 82.3336 74.4403 83.0063 73.6781 83.3745C72.5429 83.9228 71.3219 82.282 70.7279 82.083C70.346 81.955 69.7398 82.0153 69.2383 82.278C67.3794 83.2517 67.2125 84.9287 66.6782 85.7605C66.5629 85.9399 66.3488 86.059 66.0503 86.061C65.7518 86.063 65.3578 85.9317 65.0891 85.667C63.9858 84.5801 63.4951 83.4123 62.7658 82.681C62.5956 82.5104 62.3687 82.481 62.0702 82.4471C61.7717 82.4133 61.3777 82.4133 60.912 82.8073C58.7312 84.6526 58.5877 86.1904 57.7907 86.658C57.0447 87.0957 56.3986 84.877 55.7668 83.875C55.5456 83.5243 54.8723 83.6073 54.2763 83.7058C53.2311 83.8786 52.0285 85.8521 50.6275 86.8889C50.3982 87.0586 50.0982 86.9904 49.8972 86.8262C48.9315 86.0374 48.9002 84.8053 48.4693 83.8431C48.2806 83.4217 48.0385 83.078 47.6415 82.8461C46.6125 82.2452 44.4624 83.7347 43.1321 84.467C42.8399 84.6279 42.6674 84.9287 42.4674 85.0969C42.2674 85.265 42.0704 85.3307 41.8375 85.1675C40.3402 84.1181 40.2774 82.2819 39.8803 82.0501C39.6871 81.9372 39.4833 81.8839 39.2833 81.9158C38.1771 82.0919 37.2943 83.7347 36.0018 84.7317C35.5274 85.0976 35.1033 85.3964 34.6734 85.6949C34.4648 85.8397 34.1779 85.7964 33.9769 85.6978C33.1899 85.3121 32.9162 83.8143 32.152 82.9466C31.7887 82.534 31.5212 82.083 31.0257 81.9496C29.5919 81.5638 28.6058 83.7347 27.7411 84.4013C27.5508 84.5481 27.3441 84.666 27.1441 84.7008C26.9441 84.7357 26.7471 84.67 26.6128 84.4392C25.8275 83.0897 25.6168 81.6213 25.2854 80.8571C24.9119 79.9957 22.1183 80.2243 20.4118 80.3566C20.1787 80.3747 19.981 80.2919 19.8795 79.7656C19.5927 78.2781 19.6466 76.4511 19.3163 75.1258C19.0929 74.2295 16.8765 74.0551 14.3223 73.891C13.4616 73.8356 13.5412 73.3984 13.6736 73.0979C13.9365 72.5009 14.2716 72.0014 14.2397 71.5049C14.151 70.1213 11.0975 70.3417 9.79895 70.0761C9.17032 69.9475 8.5701 69.8104 8.23777 69.5796C7.29043 68.9215 9.56114 67.492 9.76114 66.695C10.0349 65.604 8.04075 64.6383 6.58305 63.2811C6.08045 62.8131 5.58505 62.5806 5.21988 62.2503C5.05388 62.1001 5.18306 61.7886 5.3154 61.6204C5.98476 60.7699 7.43777 60.8552 7.73628 60.5587C7.91519 60.381 7.83777 59.9338 7.73926 59.6652C7.35961 58.6298 5.78803 58.0712 4.45869 56.8135C4.17458 56.5447 4.25571 56.2165 4.84675 56.0811C8.02443 55.3536 8.8308 55.6811 9.16214 55.4503C9.54966 55.1803 9.4298 54.4891 9.39696 53.9926C9.33873 53.112 8.30742 52.2364 7.27857 50.8115C5.57991 48.459 4.65769 46.8633 4.19103 45.9001C4.04866 45.6063 3.86168 45.2076 3.82586 44.9061C3.79004 44.6046 3.92138 44.4076 4.15322 44.3061C4.38506 44.2046 4.71341 44.2046 4.88257 43.9091C5.82238 42.2672 3.46765 40.0375 2.50049 38.339C2.21298 37.834 2.001 37.4405 2 37.0763C1.99892 36.6793 3.64676 36.6425 5.43779 36.4783C6.06585 36.4207 6.04674 35.9858 5.88256 35.6524C5.18113 34.2283 4.58804 33.6594 4.52138 33.2624C4.48826 33.0652 4.58605 32.8654 4.88257 32.6654C7.12867 31.1504 10.0905 31.0047 10.5542 30.8067C10.9845 30.6229 11.0218 29.8147 10.989 28.9868C10.9456 27.8928 9.96313 27.2933 9.43179 26.3311C8.93722 25.4355 8.1721 24.7062 7.90444 23.9092C7.77638 23.5279 8.75916 23.3092 9.85368 22.9152C11.9353 22.1658 10.0268 19.4048 10.2905 18.37C10.6646 16.9017 13.8716 18.0675 14.3681 18.1351C15.5337 18.294 15.1332 15.9501 15.4646 15.2187C15.5424 15.047 15.7939 15.0187 16.0924 15.0834C16.816 15.2402 17.388 15.6794 17.785 15.8456C17.9722 15.924 18.182 15.8148 18.382 15.6496C19.525 14.7056 19.774 11.8466 20.2735 10.6417C20.355 10.445 20.7014 10.4417 20.9352 10.4735C22.2537 10.653 23.1591 12.2307 23.4904 12.166C24.7515 11.9199 24.0207 8.66256 24.2546 7.02874C24.3447 6.39915 24.9501 6.06358 25.4128 5.89741C25.9726 5.69635 26.6078 6.38994 27.8983 7.5173C28.5938 7.98197 29.1292 8.25062 29.5262 8.38296C29.7262 8.44963 29.9232 8.5153 30.5242 8.58296" stroke="#FFA719" stroke-width="4" stroke-linecap="round"/>
</svg>
