<svg width="94" height="90" viewBox="0 0 94 90" fill="none" xmlns="http://www.w3.org/2000/svg">
<path d="M77.8942 56.0744C77.8942 58.6895 77.5222 62.8263 76.6769 65.0835C75.7437 67.5753 73.3969 69.2174 70.5791 71.19C67.9203 73.0513 65.507 73.5458 63.25 74.1066C60.941 74.6803 56.8845 75.2366 51.6237 75.7044C38.8779 76.8377 36.2017 74.4927 33.9447 73.4557C31.6876 72.4186 29.439 71.6747 27.1819 70.1699C25.0069 68.7198 23.0482 67.3576 21.0757 66.0359C18.9049 64.5814 17.6042 61.3496 16.3756 58.9008C15.2244 56.6062 14.7751 53.6509 14.3073 49.7086C13.265 40.9241 15.147 37.8703 15.8994 35.2298C16.5514 32.9416 18.5171 29.98 20.9658 26.0292C23.2731 22.3066 28.2893 19.2604 30.6394 18.2234C33.3742 17.0166 35.9876 16.2508 39.462 15.5914C44.5551 14.6248 52.8381 14.932 58.6288 15.9605C61.2643 16.4287 63.7938 17.5583 66.6116 18.8715C69.5116 20.223 72.0557 22.2474 74.1296 24.5046C76.3814 26.9555 78.0745 29.0106 79.0185 31.2678C79.9365 33.4628 80.5204 35.7737 80.805 39.4343C81.2755 45.5126 80.9036 54.9359 79.5905 57.1931C79.2129 57.7595 78.841 58.3175 77.8942 59.456" stroke="black" stroke-width="4" stroke-linecap="round"/>
<path d="M28 36.0066C28.313 36.2437 29.0445 36.6237 29.728 36.768C30.5057 36.9322 31.9231 37.338 33.2657 37.6723C34.0279 37.768 34.6571 37.9109 36.1137 37.9823C37.3627 38.0066 39.6467 38.0066 42 38.0066" stroke="black" stroke-width="4" stroke-linecap="round"/>
<path d="M53 38.5721C53.4839 38.5721 54.4583 38.6654 55.647 38.8308C56.4461 38.942 57.1118 38.9015 59.2586 38.9722C61.1899 39.0357 64.8352 38.9962 66.8197 38.9729C69.4068 38.9425 70.048 38.6201 70.7252 38.4081C70.9152 38.3374 71.1296 38.2441 71.3204 38.1727C71.5112 38.1013 71.672 38.0547 72 38.0066" stroke="black" stroke-width="4" stroke-linecap="round"/>
<path d="M42 58.038C42 58.5503 42.0974 59.5817 42.4655 60.2418C42.8491 60.9297 43.5226 61.3007 44.0634 61.5044C44.6935 61.7418 45.5852 61.8198 46.7154 61.9625C47.9771 62.1218 48.9816 61.8216 49.3498 61.507C49.9979 60.9531 50.457 60.1043 50.8266 59.4158C50.9011 59.243 50.9498 59.0728 50.9749 58.6732C51 58.2735 51 57.6495 51 57.0066" stroke="black" stroke-width="4" stroke-linecap="round"/>
<path d="M33 40.0066C33 40.2999 33 41.1844 33 42.3688C33 42.8199 33 42.9666 33 43.1888C33 43.411 33 43.7044 33 44.0066" stroke="black" stroke-width="4" stroke-linecap="round"/>
<path d="M64 41.0066C64 41.1826 64 41.9799 64 42.8699C64 43.3133 64 43.7159 64 44.1366C64 44.3813 64 44.6893 64 45.0066" stroke="black" stroke-width="4" stroke-linecap="round"/>
<path d="M30.2853 9.77895C30.3505 9.31716 30.7432 8.25823 31.0737 7.06295C31.3204 6.17082 31.7969 5.27251 31.9291 4.24244C31.9895 3.7725 32.2587 3.0173 32.3889 2.38433C32.7272 0.740497 34.4255 4.93015 35.2158 5.99306C35.6095 6.52253 36.0061 6.99029 36.4324 7.28887C36.6393 7.43378 36.9238 7.39038 37.2533 7.19332C38.7363 6.30656 39.1616 5.20484 39.9519 4.37481C40.819 3.4642 41.0718 2.61522 41.3017 2.48087C42.1908 1.96124 41.8611 4.53205 42.1246 5.56213C42.1848 5.79762 42.2558 5.99306 42.387 6.12742C42.5183 6.26178 42.7136 6.32746 42.912 6.32846C43.8065 6.33295 44.687 5.66663 45.8049 5.07048C46.7684 4.55667 47.9746 3.68013 48.9959 2.98048C49.2312 2.81926 49.4231 2.61721 49.5237 2.9755C50.2875 5.6946 50.1493 7.25503 50.4443 7.71881C50.584 7.93835 50.8045 8.05122 51.0353 8.08605C51.5222 8.15951 52.0556 7.85615 52.4828 7.55858C53.272 7.00886 53.6343 5.67061 54.3575 4.21159C54.5558 3.8115 54.7512 3.41739 54.8844 3.31289C55.4381 2.87852 55.6076 4.99783 56.1345 6.02591C56.7717 7.26924 57.1863 8.38164 57.9421 8.78272C58.1547 8.89551 58.4335 8.91509 58.6979 8.8504C59.8873 8.55944 60.474 7.45806 61.7882 6.26775C62.1371 5.9518 62.3803 5.67061 62.547 5.63378C63.4477 5.43489 63.3709 7.91587 63.8632 8.9131C64.0809 9.35386 64.5549 9.57792 64.8499 9.97502C66.8587 12.6789 73.5042 10.7065 73.1756 11.0041C72.5611 11.5606 72.5826 12.6273 72.4178 13.4225C72.3494 13.7526 72.4484 13.955 72.6122 13.958C73.7884 13.9794 74.6823 12.8323 75.8653 12.0381C76.9968 11.2785 78.2975 11.24 79.1894 11.1385C80.4063 11 79.4894 13.7559 79.2259 14.9492C79.0805 15.608 78.9625 16.1465 78.8638 16.6421C78.8052 16.9367 78.8303 17.3348 79.2536 17.5378C81.4268 18.5802 82.706 17.4105 83.7282 17.4413C84.4474 17.463 82.5836 18.8635 81.8584 19.5632C81.5613 19.8498 81.593 20.5892 81.6907 21.3516C81.8402 22.5184 83.7598 22.6494 85.5328 23.6416C86.1909 24.0099 86.4593 24.5065 86.4939 24.8379C86.5425 25.305 85.4766 25.3684 85.0819 25.9635C84.6746 26.5778 85.1431 27.4902 85.5368 28.1531C86.0642 29.0411 87.6986 30.0739 88.8915 31.0412C89.7484 31.7361 90.4061 32.6655 90.7356 33.4627C90.812 33.6473 90.6074 33.8598 90.41 33.9613C89.5637 34.3967 88.5708 34.5923 87.8111 35.1536C86.2443 36.3111 88.1683 38.1711 89.0228 39.3326C90.0413 40.717 90.341 41.6246 90.342 41.9889C90.343 42.3859 89.6207 42.4228 89.226 42.6199C88.1065 43.1788 89.747 44.8074 90.5689 46.1002C91.1813 47.0636 91.5901 48.1912 91.8536 49.3517C91.9816 49.9157 92.0519 50.4484 91.9542 50.8794C91.7597 51.7375 89.9522 51.0495 88.8984 50.8495C88.6386 50.8002 88.3735 50.9142 88.2393 51.4735C87.5499 54.3472 88.3025 55.4883 88.9576 58.2362C89.3563 59.9082 89.5516 60.9979 89.6177 61.2975C89.6257 61.3335 89.5536 61.1373 89.4224 61.0029C89.2911 60.8686 89.0958 60.8029 88.93 60.9004C88.5293 61.1362 88.4998 61.9255 88.5649 62.6212C88.6565 63.5998 89.6128 64.8396 90.4702 66.1055C91.1918 67.1709 91.525 67.8989 91.526 68.2304C91.5313 70.0289 86.9882 68.6951 86.8234 69.1251C86.4741 70.0366 87.3789 71.014 87.6444 71.8789C87.703 72.07 87.5802 72.276 87.4164 72.4104C86.1548 73.4453 83.7657 72.9408 83.4371 73.4703C82.7748 74.5376 82.777 76.7128 82.6142 78.4724C82.5647 79.0073 82.1258 78.7212 81.893 78.4544C81.0952 77.5406 80.5432 76.663 79.6887 75.7006C79.3287 75.2952 78.9645 74.8696 78.4396 74.5053C77.9431 74.1608 77.3858 74.0714 76.9585 74.2028C75.8157 74.5542 76.2649 76.7864 75.9373 78.1798C75.6918 79.224 75.4124 80.3016 75.0493 81.3994C74.7343 82.3517 73.8337 83.0246 73.0779 83.3928C71.9522 83.9413 70.7414 82.3001 70.1524 82.101C69.7737 81.973 69.1726 82.0333 68.6753 82.2961C66.832 83.27 66.6664 84.9474 66.1366 85.7794C66.0223 85.9588 65.81 86.078 65.514 86.08C65.218 86.082 64.8272 85.9506 64.5608 85.6859C63.4668 84.5987 62.9802 83.4306 62.2569 82.6991C62.0882 82.5285 61.8632 82.4991 61.5672 82.4653C61.2712 82.4314 60.8805 82.4314 60.4187 82.8255C58.2562 84.6713 58.1138 86.2094 57.3235 86.6771C56.5838 87.1149 55.9431 84.8956 55.3166 83.8934C55.0973 83.5426 54.4295 83.6257 53.8385 83.7242C52.8021 83.897 51.6096 85.871 50.2203 86.908C49.9929 87.0778 49.6954 87.0095 49.4961 86.8453C48.5386 86.0564 48.5074 84.824 48.0802 83.8616C47.8931 83.44 47.653 83.0962 47.2593 82.8644C46.2389 82.2633 44.1068 83.7531 42.7876 84.4856C42.4979 84.6465 42.3268 84.9474 42.1285 85.1156C41.9302 85.2838 41.7348 85.3495 41.5039 85.1862C40.0191 84.1366 39.9568 82.3001 39.5631 82.0682C39.3715 81.9553 39.1695 81.902 38.9711 81.9338C37.8741 82.11 36.9987 83.7531 35.717 84.7503C35.2466 85.1163 34.8261 85.4152 34.3998 85.7137C34.1929 85.8586 33.9084 85.8152 33.7091 85.7167C32.9287 85.3309 32.6573 83.8327 31.8995 82.9649C31.5392 82.5522 31.274 82.101 30.7826 81.9676C29.3609 81.5818 28.383 83.7531 27.5256 84.4199C27.3368 84.5667 27.1319 84.6846 26.9336 84.7195C26.7352 84.7543 26.5399 84.6886 26.4067 84.4577C25.628 83.108 25.419 81.6392 25.0904 80.8749C24.72 80.0133 21.9498 80.2419 20.2576 80.3743C20.0265 80.3924 19.8304 80.3096 19.7298 79.7831C19.4454 78.2953 19.4989 76.468 19.1713 75.1423C18.9498 74.2459 16.7519 74.0714 14.2191 73.9072C13.3656 73.8519 13.4446 73.4146 13.5758 73.114C13.8366 72.5168 14.1688 72.0172 14.1372 71.5206C14.0492 70.1367 11.0213 70.3572 9.73365 70.0915C9.11028 69.9628 8.51509 69.8257 8.18554 69.5948C7.24613 68.9367 9.49783 67.5068 9.69615 66.7096C9.96762 65.6184 7.99017 64.6525 6.54468 63.295C6.04628 62.8269 5.55503 62.5943 5.19292 62.2639C5.02831 62.1137 5.15641 61.8021 5.28764 61.6339C5.9514 60.7832 7.39224 60.8686 7.68825 60.572C7.86565 60.3942 7.78889 59.947 7.69121 59.6783C7.31473 58.6426 5.75631 58.0839 4.4381 56.8259C4.15637 56.557 4.23682 56.2288 4.82291 56.0934C7.97399 55.3657 8.7736 55.6933 9.10217 55.4624C9.48644 55.1924 9.36759 54.501 9.33502 54.0044C9.27728 53.1236 8.2546 52.2478 7.23437 50.8226C5.54993 48.4696 4.63544 46.8735 4.17268 45.9101C4.0315 45.6162 3.84609 45.2174 3.81057 44.9159C3.77505 44.6143 3.90529 44.4173 4.13519 44.3157C4.36509 44.2142 4.69069 44.2142 4.85843 43.9186C5.79037 42.2764 3.45536 40.0462 2.4963 38.3473C2.2112 37.8423 2.00099 37.4486 2 37.0843C1.99892 36.6873 3.63297 36.6504 5.409 36.4862C6.0318 36.4286 6.01285 35.9936 5.85005 35.6602C5.15449 34.2357 4.56637 33.6667 4.50026 33.2696C4.46742 33.0723 4.5644 32.8725 4.85843 32.6724C7.08572 31.1571 10.0227 31.0114 10.4825 30.8133C10.9092 30.6295 10.9463 29.8211 10.9137 28.993C10.8707 27.8988 9.89645 27.2991 9.36956 26.3368C8.87913 25.4409 8.12041 24.7115 7.855 23.9143C7.72801 23.5329 8.70256 23.3142 9.78791 22.9201C11.8521 22.1706 9.9596 19.4089 10.2211 18.3738C10.5921 16.9053 13.7722 18.0713 14.2645 18.139C15.4204 18.2978 15.0233 15.9534 15.3518 15.2219C15.429 15.0501 15.6784 15.0219 15.9744 15.0866C16.6919 15.2434 17.2591 15.6827 17.6528 15.8489C17.8385 15.9273 18.0465 15.8181 18.2448 15.6529C19.3783 14.7086 19.6252 11.8491 20.1205 10.6438C20.2013 10.4471 20.5448 10.4438 20.7766 10.4756C22.0841 10.6552 22.9819 12.2332 23.3104 12.1685C24.561 11.9223 23.8363 8.66429 24.0682 7.0301C24.1576 6.40037 24.7579 6.06472 25.2167 5.89852C25.7719 5.69742 26.4017 6.39116 27.6815 7.51877C28.3712 7.98354 28.902 8.25226 29.2957 8.38462C29.494 8.45131 29.6894 8.51699 30.2853 8.58467" stroke="black" stroke-width="4" stroke-linecap="round"/>
<path d="M42 59.0066C42 58.9492 42 58.8918 41.835 58.8192C41.67 58.7466 41.34 58.6605 41.17 58.3579C41 58.0553 41 57.5388 41 57.0066" stroke="black" stroke-width="4" stroke-linecap="round"/>
</svg>
