<svg width="23" height="19" viewBox="0 0 23 19" fill="none" xmlns="http://www.w3.org/2000/svg">
<path d="M2.78978 16.2345C2.78978 15.606 2.50551 13.7836 2.32354 10.1664C2.23956 8.4971 2.00159 7.38019 1.74962 6.1864C1.38495 4.45862 1.49766 3.44448 1.60426 2.5312C1.64733 2.16218 1.92406 2.03555 2.14049 1.92904C2.55665 1.72423 4.14005 1.68121 6.43464 1.64641C7.88019 1.62448 11.1606 1.47029 15.5021 1.50509C18.1527 1.52634 19.3698 1.75081 19.7995 2.06508C21.0878 3.00749 21.0216 4.55812 21.3091 5.50936C21.4666 6.03059 21.5255 9.2447 21.49 13.7784C21.4757 15.6005 21.3102 16.0215 21.168 16.3726C20.8082 17.2617 19.092 16.9347 16.0814 17.113C14.5653 17.2891 13.7039 17.3587 11.6387 17.4641C9.85768 17.5 6.58862 17.5 3.22049 17.5" stroke="black" stroke-width="3" stroke-linecap="round"/>
</svg>
