<svg width="1101" height="539" viewBox="0 0 1101 539" fill="none" xmlns="http://www.w3.org/2000/svg">
<path d="M18.8376 461.2C17.3913 448.242 15.4823 429.997 14.2602 419.336C14.0381 417.399 13.5443 415.494 13.2985 400.449C13.0526 385.404 13.0526 357.278 12.814 341.597C12.5753 325.916 12.0981 323.533 11.8522 304.19C11.6064 284.847 11.6064 248.617 11.3677 229.239C11.1291 209.86 10.6518 208.43 10.406 193.63C10.1601 178.83 10.1601 150.705 9.92147 135.501C9.49475 108.312 7.75934 87.0859 7.50624 70.0327C7.34978 59.4906 10.1601 48.1403 13.0381 38.2089C15.0309 31.3323 21.7011 26.414 27.732 23.5032C34.6851 20.1473 44.8122 17.7466 56.8811 14.5975C65.229 12.4192 74.7205 10.986 89.6096 9.29589C97.7108 8.37629 111.6 9.05032 119.684 8.81196C127.769 8.57361 129.678 8.0969 170.99 7.85132C212.302 7.60575 292.959 7.60575 335.941 8.08246C381.807 8.59114 391.42 10.4949 402.736 10.7332C409.793 10.8819 417.944 11.9395 429.723 12.4162C442.053 12.9151 460.304 14.8286 480.053 15.0669C487.873 15.1613 491.21 15.782 520.851 15.7892C550.492 15.7964 606.332 15.3197 638.916 14.5975C671.5 13.8752 679.136 12.9218 690.944 12.4306C718.483 11.2852 741.888 10.986 755.599 9.54147C767.819 8.25386 777.119 8.57361 809.862 7.85132C839.258 7.20287 894.626 7.60575 924.339 7.8441C960.368 8.13311 967.054 11.4483 975.493 12.4162C987.585 13.803 995.025 17.2266 1003.45 19.8701C1018.2 24.4993 1026.35 29.7365 1035.27 33.5935C1043.6 37.1928 1057.62 51.3184 1068.31 64.8684C1073.8 71.834 1075.55 79.3141 1079.88 87.2664C1084.81 96.305 1087.58 108.668 1089.54 125.511C1091.61 143.38 1092.43 156.858 1093.15 183.345C1093.82 207.916 1093.4 255.118 1092.92 281.337C1092.21 320.134 1088.6 337.372 1087.37 348.011C1086.59 354.826 1085.21 364.356 1083.52 374.252C1082.17 382.13 1080.87 391.803 1080.14 401.698C1079.51 410.278 1077.49 423.555 1076.29 434.432C1074.41 451.489 1073.15 462.096 1070.75 470.084C1068.53 477.47 1063.06 485.238 1057.03 490.315C1050.12 496.131 1039.95 502.081 1028.84 508.372C1024.86 510.627 1020.15 511.269 1004.12 514.858C990.567 517.895 965.666 521.785 950.972 523.995C936.278 526.206 932.46 526.206 920.232 526.682C908.004 527.159 887.482 528.112 875.478 528.842C863.474 529.571 860.611 530.048 772.99 530.532C685.369 531.016 513.078 531.493 422.174 531.5C331.27 531.507 326.975 531.03 319.512 530.785C287.877 529.744 276.327 529.095 255.429 527.896C225.121 526.157 203.017 527.173 198.447 526.451C190.544 525.202 167.512 524.761 149.535 523.562C129.767 522.244 118.224 521.872 106.386 520.673C87.401 518.75 75.7908 518.983 67.5544 517.784C59.3463 516.589 49.7583 514.649 41.7606 512.013C34.7994 509.718 28.9902 506.964 25.8374 501.67C22.3468 495.808 19.3293 490.12 18.599 469.947C18.3603 465.548 17.8831 464.118 17.3986 462.666C16.9141 461.215 16.4368 459.784 15.9451 458.311" stroke="black" stroke-width="15" stroke-linecap="round"/>
</svg>
